<?xml version="1.0" encoding="UTF-8"?>
<svg xmlns="http://www.w3.org/2000/svg" viewBox="0 0 960 576" role="img" aria-labelledby="t d">
  <title id="t">A six-criterion sprint contract routed to its verifiers, above the three phases that surround it</title>
  <desc id="d">A hand-drawn figure. A wide band across the top holds the contract: a definition of done frozen before the work, written out as one small feature’s six numbered criteria, each with the cheapest verifier that can settle it and whether it is objective or judged. One, parse accepts an empty list and returns an empty list, settled by a unit test, objective. Two, parse raises a ValueError on a malformed row and names it, a unit test, objective. Three, every public function carries a type annotation, a type checker, objective. Four, the new behaviour is covered by tests and the suite passes, the test runner, objective. Five, the changelog gains one line describing the change, a five-line script, objective. Six, the error a user sees is understandable without the source, the evaluator, judged. Notes below record that five of the six are settled by code that costs nothing per run and cannot hallucinate a pass, so the evaluator grades only the residue, and that at real size sprint 3 of the published game-maker run carried 27 criteria for the level editor alone. Dotted lines drop from the band into three phase cards. One, negotiate: the planner drafts the criteria and the evaluator agrees them up front, pushing back on the unmeasurable, the impossible as written, and the assumption of unscheduled work. Two, generate: the generator builds to the contract and cannot redefine what done means; it is handed the plan, the contract and the last verdict, and never the grader’s reasoning. Three, judge: the evaluator scores the work against the same contract criterion by criterion, where PASS ships the sprint and NEEDS_WORK names the criterion and returns to phase two, capped at three revisions. Captions record that the bar was written before the work by a different role, so the generator cannot pass by lowering it, and that even a short explicit list turns &quot;make it good&quot; into something an independent grader can check line by line.</desc>

  <style><![CDATA[
    :root{--ce-bg:#FAFAF7;--ce-surface:#FFFFFF;--ce-ink:#1A1A1A;--ce-ink-muted:#5C5C5C;--ce-ink-subtle:#9A9A9A;--ce-border:#D9D9D4;--ce-primary:#5B7FBF;--ce-accent:#D98E5F;--ce-success:#5C9E78;--ce-warn:#B8895A;--ce-alert:#C66B5E;--ce-neutral-1:#EAEAE4;--ce-neutral-2:#CFCFC8;--ce-neutral-3:#8E8E88;--ce-on-fill:#FFFDF9;--ce-on-accent:#1A1A1A;}
    @media (prefers-color-scheme:dark){:root{--ce-bg:#0E0F12;--ce-surface:#16181C;--ce-ink:#F2F2EE;--ce-ink-muted:#B4B4AE;--ce-ink-subtle:#6E6E68;--ce-border:#2A2D33;--ce-primary:#8BA8E0;--ce-accent:#E8B088;--ce-success:#7FBF9B;--ce-warn:#D4B58A;--ce-alert:#D88880;--ce-neutral-1:#1F2229;--ce-neutral-2:#2C3038;--ce-neutral-3:#6E6E68;--ce-on-fill:#14161A;--ce-on-accent:#1A1A1A;}}
    .bg{fill:var(--ce-bg);}
    text{dominant-baseline:auto;}
  ]]></style>

  <rect class="bg" width="960" height="576"/>
<text xml:space="preserve" x="480" y="38.24" text-anchor="middle" font-family='"Excalifont","Virgil","Segoe Print","Comic Sans MS",ui-rounded,cursive' font-size="22" fill="var(--ce-ink)">The sprint contract</text><text xml:space="preserve" x="480" y="61.96" text-anchor="middle" font-family='"Excalifont","Virgil","Segoe Print","Comic Sans MS",ui-rounded,cursive' font-size="13" fill="var(--ce-ink-muted)">Agree what &quot;done&quot; means before the work starts, then route each criterion to the cheapest verifier that settles it.</text><path d="M64.78 92.48C375.84 93.56 686.01 93.61 895.74 92.04C911.53 94.47 918.73 99.74 917.43 114.95C922.42 175.87 917.8 238.59 921.93 309.7C922.59 325.66 910.85 336.43 894.76 332.58C594.69 333.21 292.95 334.45 64.43 334.46C49.92 335.41 41.75 324.02 41.35 308.34C40.71 245.63 41.34 175.56 40.47 117.13C39.17 99.34 48.54 92.47 62.36 92.12C64 92 64 92 64 92" fill="var(--ce-surface)" stroke="none"/><path d="M63.71 91.56C322.94 95.31 582.41 94.38 896.39 92.42M64.39 92.27C237.52 92.35 411.75 91.8 895.87 91.79M896 92C910.3 92.19 921.28 101.58 920.09 114.31M897.5 93.94C913.59 91.4 918.5 102.07 918.79 118.06M920.14 115.12C921.15 164.68 921.79 215.22 921.57 308.18M920.6 115.64C920.43 176.81 920.84 236.14 920.71 309.66M920 310C921.04 324.72 913.32 335.44 895.18 333.25M919.16 309.88C919.78 326 911.65 334.92 896.88 331.73M895.68 334.42C568.87 333.52 240.09 334.27 63.21 334.43M895.77 334.26C609.82 336.28 323.34 336.01 64.16 334.19M64 334C46.81 332.56 41.78 324.7 42 309.68M65.94 334.38C47.78 333.43 40.56 325.47 41.17 312.02M38.39 310.47C37.56 261.12 36.51 213.89 41.6 115.92M39.57 310.81C40.48 261.63 40.59 213.56 40.79 115.14M40 116C38.85 100.63 49.19 93.75 63 90.57M38.19 116.77C40.93 101.97 50.07 91.09 64.38 92.88M64 92C64 92 64 92 64 92M64 92C64 92 64 92 64 92" fill="none" stroke="var(--ce-ink)" stroke-width="1.5" stroke-linecap="round" stroke-linejoin="round"/><path d="M46 101.98C45.94 179.63 44.74 255.96 44.23 326.01M44.59 100.5C44.7 166.66 44.4 233.32 45.36 325.01" fill="none" stroke="var(--ce-accent)" stroke-width="4" stroke-linecap="round" stroke-linejoin="round"/><text xml:space="preserve" x="58" y="109.2" text-anchor="start" font-family='"Excalifont","Virgil","Segoe Print","Comic Sans MS",ui-rounded,cursive' font-size="10" fill="var(--ce-accent)">THE CONTRACT: A DEFINITION OF DONE, FROZEN BEFORE THE WORK</text><text xml:space="preserve" x="58" y="126.74" text-anchor="start" font-family='"Excalifont","Virgil","Segoe Print","Comic Sans MS",ui-rounded,cursive' font-size="9.5" fill="var(--ce-ink-muted)">One small feature, six numbered criteria, and the cheapest verifier that can settle each.</text><text xml:space="preserve" x="58" y="147.82" text-anchor="start" font-family='"Excalifont","Virgil","Segoe Print","Comic Sans MS",ui-rounded,cursive' font-size="8.5" fill="var(--ce-ink-subtle)">CRITERION</text><text xml:space="preserve" x="600" y="147.82" text-anchor="start" font-family='"Excalifont","Virgil","Segoe Print","Comic Sans MS",ui-rounded,cursive' font-size="8.5" fill="var(--ce-ink-subtle)">SETTLED BY</text><text xml:space="preserve" x="786" y="147.82" text-anchor="start" font-family='"Excalifont","Virgil","Segoe Print","Comic Sans MS",ui-rounded,cursive' font-size="8.5" fill="var(--ce-ink-subtle)">KIND</text><path d="M56.23 153.99C361.82 154.06 667.61 153.99 903.96 153.93M56.06 153.9C232.64 153.63 409.22 153.62 904.09 153.92" fill="none" stroke="var(--ce-border)" stroke-width="1" stroke-linecap="round" stroke-linejoin="round"/><path d="M57.87 160.56C64.17 157.99 68.32 159.29 74.49 157.55C77.03 160.36 74.34 160.87 77.22 159.69C76.63 164.38 77 169.21 77.18 171.43C77.02 172.67 73.86 177.3 74.59 174.16C68.33 175.17 62.73 173.51 59.27 176.13C58.2 175.87 57.47 171.87 55.33 170.88C57.38 167.95 56.73 165.44 55 162.33C54.75 161.01 56.9 156.58 60.92 160.53C58.67 159 58.67 159 58.67 159" fill="var(--ce-success)" stroke="none"/><path d="M59.13 158.21C63.6 160.38 70.33 159.68 74.19 159.21M59.2 158.65C62.77 159.17 67.24 159.7 73.19 158.89M73.33 159C75 160.47 75.17 159.29 76.21 161.98M74.15 160.93C72.82 158.58 76.37 159.24 75.5 161.4M75.9 161.19C76.61 164.44 75.92 168.1 75.86 173.01M76.12 161.74C75.62 165.65 76.4 169.35 75.73 172.8M76 172.33C75.13 175.73 75.05 175.71 72.59 174.83M75.84 174.06C74.37 174.45 75.27 176.03 72.92 174.44M72.55 176.05C68.75 175.67 64.03 174.89 59.3 175.98M72.75 175.25C68.11 174.96 63.61 175.15 59.05 175.7M58.67 175C55.57 176.53 56.92 175.7 57.85 173.89M60.06 174.86C55.15 175.89 56.34 172.25 53.93 172.44M56.63 172.59C56.93 169.9 55.23 166.34 55.83 162.14M56.03 172.58C56.42 168.91 56.09 165.46 56.47 161.61M56 161.67C55.87 160.87 56.76 157.13 58.06 157.42M54.15 159.94C55.71 158.92 58.3 159.35 60.2 157.59M58.67 159C58.67 159 58.67 159 58.67 159M58.67 159C58.67 159 58.67 159 58.67 159" fill="none" stroke="var(--ce-success)" stroke-width="1" stroke-linecap="round" stroke-linejoin="round"/><text xml:space="preserve" x="66" y="169.2" text-anchor="middle" font-family='"Excalifont","Virgil","Segoe Print","Comic Sans MS",ui-rounded,cursive' font-size="10" fill="var(--ce-on-accent)">1</text><text xml:space="preserve" x="86" y="169.2" text-anchor="start" font-family='"Excalifont","Virgil","Segoe Print","Comic Sans MS",ui-rounded,cursive' font-size="10" fill="var(--ce-ink)">parse() accepts an empty list and returns []</text><text xml:space="preserve" x="600" y="169.2" text-anchor="start" font-family='"Excalifont","Virgil","Segoe Print","Comic Sans MS",ui-rounded,cursive' font-size="10" fill="var(--ce-ink-muted)">a unit test</text><path d="M791.42 161.58C820.22 159.74 850.92 157.14 867.26 158.59C869.57 157.2 868.15 158.94 870.52 161.99C868.73 164.86 869.16 170.45 869.85 173.29C867.64 175.67 867.76 178.23 867.07 178.05C845.81 177 823.79 174.64 786.93 177.74C787.96 176.6 787.33 175.29 784.31 171.82C785.02 171.57 785.27 168.69 787.21 161.09C784.54 159.35 789.29 160.33 790.43 158.63C788.83 159 788.83 159 788.83 159" fill="var(--ce-success)" stroke="none"/><path d="M788.34 158.25C814.15 158.41 842.98 159.61 866.65 158.94M788.55 159.66C807.22 160.25 826.22 160.09 867.07 159.03M867.17 159C868.13 157.68 870.08 160.16 870.19 162.75M866.1 158.95C869.31 160.38 869.31 160.15 871.52 160.84M870.65 161.48C869.8 164.26 869.7 167.32 869.54 173.49M869.62 161.59C870.04 166.27 870.03 170.68 869.95 173.36M870 173.17C870.12 174.4 868.52 176.24 866.68 174.69M870.13 173.62C869.97 173.8 869.35 176.76 866.43 176.2M867.73 177.13C848.57 176.58 828.42 176.21 789.04 175.62M867.24 175.43C843.52 176.06 821.18 175.88 789.24 176.14M788.83 176C785.97 175.31 786.34 175.78 785.84 173.51M789.62 177.12C788.41 175.52 784.55 176.51 785.03 174.18M786.23 172.57C785.53 170.06 785.42 166.94 785.49 161.58M786.12 172.88C786.02 170.76 786.42 167.88 786.37 161.55M786 161.83C786.26 160.76 787.79 159.23 789.95 159.24M784.69 161.14C785.37 159.85 786.1 158.07 790.31 158.82M788.83 159C788.83 159 788.83 159 788.83 159M788.83 159C788.83 159 788.83 159 788.83 159" fill="none" stroke="var(--ce-success)" stroke-width="1" stroke-linecap="round" stroke-linejoin="round"/><text xml:space="preserve" x="828" y="168.28" text-anchor="middle" font-family='"Excalifont","Virgil","Segoe Print","Comic Sans MS",ui-rounded,cursive' font-size="9" fill="var(--ce-on-accent)">objective</text><path d="M56.08 177.11C205.49 176.27 355.26 176.4 769.8 177.21M56 176.96C204.23 176.49 352.59 176.41 769.99 176.9" fill="none" stroke="var(--ce-border)" stroke-width="1" stroke-linecap="round" stroke-linejoin="round"/><path d="M57.82 183.19C63.71 182.37 68.89 183.77 73.54 181.61C73.27 183.04 74 184.3 75.99 185.13C75.57 188.14 74.62 191.49 76.96 194.82C73.7 196.66 75.08 200.18 72.22 195.71C68.48 197.07 62.27 198.15 57.68 198.43C58.97 198.39 55.92 196.6 57.46 196.66C54.71 193.01 55.62 187.15 57.37 185.03C55.69 183.62 57.09 179.65 59.78 181.51C58.67 182 58.67 182 58.67 182" fill="var(--ce-success)" stroke="none"/><path d="M58.16 181.96C62.19 183.3 66.4 180.9 73.21 180.99M58.85 182.01C63.63 181.25 67.22 181.29 74 181.78M73.33 182C73.88 181.6 76.83 183.87 76.32 185.73M73.05 183.43C76.32 181.16 73.99 185.04 75.56 184.67M76.01 185.25C75.43 189.11 76.77 191.17 76.08 194.51M75.54 184.57C75.93 187.11 75.87 189.97 76.36 195.7M76 195.33C74.96 197.26 73.83 197.07 72.66 196.84M75.44 194.17C74.85 198.31 74.57 196.83 75.24 198.93M72.02 197.09C70.1 196.51 66.34 199.34 58.57 196.57M73.17 198.6C69.25 198.23 65.91 198.48 58.03 198.47M58.67 198C56.46 196.13 57.16 195.72 54.22 197.02M59.58 197.91C54.97 197.29 55.57 197.53 57.42 195.48M55.53 195.33C56.44 191.88 56.94 187.12 55.47 183.72M55.99 195.81C55.82 192.05 55.95 188.7 55.72 184.57M56 184.67C55.76 181.18 57.1 183.96 56.9 183.78M56.11 186.24C55.8 182.23 57.16 182.87 60.06 180.3M58.67 182C58.67 182 58.67 182 58.67 182M58.67 182C58.67 182 58.67 182 58.67 182" fill="none" stroke="var(--ce-success)" stroke-width="1" stroke-linecap="round" stroke-linejoin="round"/><text xml:space="preserve" x="66" y="192.2" text-anchor="middle" font-family='"Excalifont","Virgil","Segoe Print","Comic Sans MS",ui-rounded,cursive' font-size="10" fill="var(--ce-on-accent)">2</text><text xml:space="preserve" x="86" y="192.2" text-anchor="start" font-family='"Excalifont","Virgil","Segoe Print","Comic Sans MS",ui-rounded,cursive' font-size="10" fill="var(--ce-ink)">parse() raises ValueError on a malformed row, naming it</text><text xml:space="preserve" x="600" y="192.2" text-anchor="start" font-family='"Excalifont","Virgil","Segoe Print","Comic Sans MS",ui-rounded,cursive' font-size="10" fill="var(--ce-ink-muted)">a unit test</text><path d="M791.35 184.08C808.47 183.82 829.45 181.36 865.96 183.03C871.01 179.88 867.8 182.38 869.29 187.43C870.67 188.67 869.69 189.73 869.62 196.71C869.52 199.66 868.97 201.12 864.7 199.6C846.41 198.62 823.93 200.01 789.96 199.79C788.72 199.12 785.78 200.01 786.44 197.6C785.13 193.81 787.04 190.32 786.78 183.78C785.48 181.96 789.48 183.4 789.29 179.61C788.83 182 788.83 182 788.83 182" fill="var(--ce-success)" stroke="none"/><path d="M790.22 181.97C818.77 180.95 848.35 183.33 868.52 180.77M788.22 181.61C808 182.23 826.12 183.01 867.85 181.92M867.17 182C870.15 182.17 871.24 184.27 870.27 183.48M868.13 181.6C868.55 183.08 870.86 181.89 871.55 184.03M870.73 185.27C870.51 186.98 870.33 190.48 869.69 195.38M869.98 184.46C870.1 187.77 870.26 191.2 869.62 196.29M870 196.17C870 199.17 867.67 198.09 866.72 199.79M869.85 197.4C870.31 197.4 868.85 198.22 868.05 200.25M867.22 198.26C852.22 200.25 835.36 200.53 788.34 199.13M867.64 198.76C849.62 199.38 833.39 199.26 788.26 198.92M788.83 199C786.6 198.73 786.51 196.69 786.1 196.6M789.28 200.15C788.28 197.4 787.23 197.88 787.47 197.21M785.41 195.38C785.34 192.16 785.28 189.61 785.22 185.11M786.09 196.05C786.19 193.93 786.14 191.19 785.81 184.51M786 184.83C786.19 181.88 788.03 182.11 789.14 181.8M786.06 183.66C785.43 183.06 788.51 181.44 790.21 181.62M788.83 182C788.83 182 788.83 182 788.83 182M788.83 182C788.83 182 788.83 182 788.83 182" fill="none" stroke="var(--ce-success)" stroke-width="1" stroke-linecap="round" stroke-linejoin="round"/><text xml:space="preserve" x="828" y="191.28" text-anchor="middle" font-family='"Excalifont","Virgil","Segoe Print","Comic Sans MS",ui-rounded,cursive' font-size="9" fill="var(--ce-on-accent)">objective</text><path d="M55.92 200.24C240.75 200.36 425.6 200.21 770.12 200.01M55.95 200.02C203.72 199.06 351.76 199.14 769.88 200.12" fill="none" stroke="var(--ce-border)" stroke-width="1" stroke-linecap="round" stroke-linejoin="round"/><path d="M57.77 205.83C64.14 206.6 67.41 204.29 72.58 205.66C74.71 205.71 73.66 207.74 74.76 205.36C74.62 209.13 75.12 213.76 76.74 218.22C75.58 220.65 76.29 223.07 75.05 222.47C68.64 222.63 61.81 222.65 59.9 220.73C54.54 220.92 54.38 221.32 54.39 217.24C54.81 215.29 57.28 211.63 56.96 207.73C56.62 206.23 57.27 202.71 58.64 202.49C58.67 205 58.67 205 58.67 205" fill="var(--ce-success)" stroke="none"/><path d="M60.13 205.71C63.71 203.6 68.33 205.38 72.24 205.7M58.5 205.37C63.01 204.79 67.19 204.34 73.35 204.66M73.33 205C76.77 206.73 74.48 204.46 76.43 209.49M71.95 205.92C75.23 203.74 76.2 206.24 75.61 207.94M76.12 207.18C76.61 211.66 75.73 214.23 76.29 218.15M76.04 207.4C76.01 211.76 76.17 214.85 75.92 218.6M76 218.33C74.79 218.79 76.61 222.43 72.73 222.85M75.04 218.29C75.33 222.18 73.86 222.22 72.96 218.82M74.41 221.06C71.46 220.28 65.72 220.86 57.83 220.1M73.59 220.48C67.46 221.51 62.35 221.82 58.47 221.23M58.67 221C57.34 219.72 57.4 219.75 54.58 220.16M59.11 220.95C54.78 223.29 54.8 218.21 56.31 218.53M56.56 218.07C55.95 213.85 56.51 210.04 55.11 207.43M55.95 217.98C56.04 215.19 55.58 213.01 56.03 207.52M56 207.67C55.66 205.49 57.44 206.8 59.74 206.15M54.08 208.55C55.88 205.53 56.01 206.4 59.92 203.02M58.67 205C58.67 205 58.67 205 58.67 205M58.67 205C58.67 205 58.67 205 58.67 205" fill="none" stroke="var(--ce-success)" stroke-width="1" stroke-linecap="round" stroke-linejoin="round"/><text xml:space="preserve" x="66" y="215.2" text-anchor="middle" font-family='"Excalifont","Virgil","Segoe Print","Comic Sans MS",ui-rounded,cursive' font-size="10" fill="var(--ce-on-accent)">3</text><text xml:space="preserve" x="86" y="215.2" text-anchor="start" font-family='"Excalifont","Virgil","Segoe Print","Comic Sans MS",ui-rounded,cursive' font-size="10" fill="var(--ce-ink)">every public function carries a type annotation</text><text xml:space="preserve" x="600" y="215.2" text-anchor="start" font-family='"Excalifont","Virgil","Segoe Print","Comic Sans MS",ui-rounded,cursive' font-size="10" fill="var(--ce-ink-muted)">a type checker</text><path d="M791.28 206.59C817.59 203.53 844.52 206.39 864.66 207.46C867.25 202.56 867.46 205.81 868.06 207.67C869.66 211.8 870.23 216.49 869.39 220.12C871.39 223.64 870.18 224 867.53 221.16C847 219.43 824.07 219.36 787.79 221.83C789.49 221.64 784.24 219.54 788.57 218.18C785.24 216.05 785.86 214.89 786.35 206.46C786.41 204.57 784.47 206.47 788.15 205.79C788.83 205 788.83 205 788.83 205" fill="var(--ce-success)" stroke="none"/><path d="M789.3 205.69C807.71 203.48 825.19 204.25 867.59 205.4M789.28 204.95C807.38 205.61 826.02 204.52 867.23 204.81M867.17 205C869.37 203.86 869.6 205.58 870.34 207.01M867.36 204.24C867.78 205.79 869.18 206.85 871.59 207.21M869.23 207.47C869.8 211.29 869.55 213.65 869.85 218.85M870.35 208.13C870.33 212.33 869.86 216.27 870.09 219.21M870 219.17C869.88 221.14 869.62 222.75 866.77 222.1M869.57 218.38C870.65 221.01 868.36 222.89 866.46 221.07M866.7 222.19C837.41 221.12 808.16 222.06 787.63 222.63M866.64 222.09C840.04 221.5 814.26 221.43 788.69 221.69M788.83 222C787.22 222.14 786.68 220.41 786.35 219.7M788.95 223.18C788.16 222.5 786.69 222.48 786.69 220.24M786.18 219.77C786.56 215.85 786.55 212.28 786.54 207.06M786.06 219.23C785.74 217.11 786.04 214.51 786.04 207.48M786 207.83C786.12 205.79 788.27 204.99 788.32 204.35M784.64 208.97C785.49 206.28 787.71 204.81 790.11 204.42M788.83 205C788.83 205 788.83 205 788.83 205M788.83 205C788.83 205 788.83 205 788.83 205" fill="none" stroke="var(--ce-success)" stroke-width="1" stroke-linecap="round" stroke-linejoin="round"/><text xml:space="preserve" x="828" y="214.28" text-anchor="middle" font-family='"Excalifont","Virgil","Segoe Print","Comic Sans MS",ui-rounded,cursive' font-size="9" fill="var(--ce-on-accent)">objective</text><path d="M55.76 222.88C276.02 222.56 495.95 222.62 769.96 222.81M55.89 223.08C203.45 223.76 350.93 223.76 770.01 223.1" fill="none" stroke="var(--ce-border)" stroke-width="1" stroke-linecap="round" stroke-linejoin="round"/><path d="M57.72 228.46C63.68 227.17 67.99 228.77 71.63 229.71C76.15 228.39 78.51 231.17 73.53 230.8C76.45 232.9 75.62 236.04 76.52 241.61C77.45 244.64 77.5 245.95 72.69 244.03C68.79 244.53 61.35 243.48 58.31 243.03C55.31 243.44 58.03 240.85 56.52 243.02C54.92 237.58 56.17 236.12 56.56 230.44C57.56 228.84 57.46 225.78 57.5 228.67C58.67 228 58.67 228 58.67 228" fill="var(--ce-success)" stroke="none"/><path d="M59.16 229.46C62.29 226.52 67.32 226.6 74.19 227.48M58.15 227.27C62.4 228.33 67.16 227.39 72.7 227.55M73.33 228C75.66 227.85 76.14 229.04 76.53 229.24M74.84 228.42C74.13 226.33 73.81 227.44 75.67 231.21M76.23 231.24C75.43 234.2 76.58 237.3 76.5 241.79M76.53 230.23C76.32 233.21 75.64 236.53 75.48 241.5M76 241.33C74.62 244.32 75.4 243.79 72.8 244.85M74.64 242.4C75.82 241.44 73.16 243.02 75.29 243.31M73.88 245.03C66.94 244.04 62.17 245.32 60.03 243.63M74.01 243.82C68.6 244.46 64.65 243.36 58.92 243.99M58.67 244C58.23 243.32 57.64 243.77 54.95 243.29M58.63 244C54.6 244.69 54.03 243.5 55.2 241.58M55.46 240.81C55.46 237.95 56.09 237.22 56.88 231.15M55.91 241.21C56.51 238.32 56.5 236.26 56.34 230.48M56 230.67C55.55 229.8 57.78 229.63 58.59 228.52M56.04 230.86C55.97 228.84 54.86 229.93 59.78 225.73M58.67 228C58.67 228 58.67 228 58.67 228M58.67 228C58.67 228 58.67 228 58.67 228" fill="none" stroke="var(--ce-success)" stroke-width="1" stroke-linecap="round" stroke-linejoin="round"/><text xml:space="preserve" x="66" y="238.2" text-anchor="middle" font-family='"Excalifont","Virgil","Segoe Print","Comic Sans MS",ui-rounded,cursive' font-size="10" fill="var(--ce-on-accent)">4</text><text xml:space="preserve" x="86" y="238.2" text-anchor="start" font-family='"Excalifont","Virgil","Segoe Print","Comic Sans MS",ui-rounded,cursive' font-size="10" fill="var(--ce-ink)">the new behaviour is covered by tests, and the suite passes</text><text xml:space="preserve" x="600" y="238.2" text-anchor="start" font-family='"Excalifont","Virgil","Segoe Print","Comic Sans MS",ui-rounded,cursive' font-size="10" fill="var(--ce-ink-muted)">the test runner</text><path d="M791.21 229.09C805.84 228.43 823.06 226.23 868.56 226.7C868.68 230.44 872.32 229.25 872.03 233.1C868.66 235.61 870.76 238.72 869.16 243.54C868.07 242.43 871.4 246.89 865.17 242.72C847.6 246.25 824.21 244.73 790.82 243.88C785.06 244.17 787.89 244.27 785.5 243.96C785.35 238.97 784.68 231.99 785.92 232.09C787.35 227.18 784.65 229.54 787.01 226.77C788.83 228 788.83 228 788.83 228" fill="var(--ce-success)" stroke="none"/><path d="M788.38 226.6C812.33 227.22 833.36 229.18 866.65 227.24M788.95 228.3C806.75 227.59 825.92 227.44 866.61 227.7M867.17 228C868.59 228.35 870.76 229.69 870.42 230.54M866.58 226.89C870.23 228.5 870.73 228.59 868.41 230.4M869.31 231.26C870.51 234.01 870.19 236.81 870.01 242.33M869.92 231.01C870.38 233.83 870.09 237.59 869.77 242.14M870 242.17C869.76 243.12 868.77 244.6 866.82 244.4M869.29 242.16C870.98 244.61 867.87 244.35 868.08 245.12M866.19 246.11C841.07 244.8 815.1 246.38 789.73 246.14M867.04 245.42C846.14 244.82 826.46 244.8 789.12 244.46M788.83 245C787.84 245.56 786.84 244.13 786.61 242.79M788.62 246.21C788.03 244.38 786.15 243.86 785.91 243.28M785.36 242.58C786.2 237.95 786.24 233.37 786.27 230.59M786.03 242.4C785.91 238.01 785.76 233.29 786.27 230.45M786 230.83C786.04 229.71 785.7 227.87 787.51 226.91M786.02 231.49C785.55 229.49 786.91 228.18 790.01 227.22M788.83 228C788.83 228 788.83 228 788.83 228M788.83 228C788.83 228 788.83 228 788.83 228" fill="none" stroke="var(--ce-success)" stroke-width="1" stroke-linecap="round" stroke-linejoin="round"/><text xml:space="preserve" x="828" y="237.28" text-anchor="middle" font-family='"Excalifont","Virgil","Segoe Print","Comic Sans MS",ui-rounded,cursive' font-size="9" fill="var(--ce-on-accent)">objective</text><path d="M56.08 246C311.28 246.65 566.29 246.43 769.8 246.09M56.07 245.9C202.93 246.58 350.1 246.49 769.91 246.08" fill="none" stroke="var(--ce-border)" stroke-width="1" stroke-linecap="round" stroke-linejoin="round"/><path d="M57.67 251.09C60.29 251.55 66.51 249.44 74.49 249.95C77.59 251.07 78.17 249.41 77.5 256.24C75.5 256.02 76.12 259.81 76.3 265C74.13 268.63 73.51 268.84 75.52 265.58C68.95 266.44 64.7 268.13 60.53 265.33C56.08 265.96 56.48 265.58 53.45 263.61C55.13 262.63 55.17 257.83 56.15 253.14C58.49 251.45 57.65 248.85 56.36 249.65C58.67 251 58.67 251 58.67 251" fill="var(--ce-success)" stroke="none"/><path d="M58.2 250.28C63.81 249.76 69.25 251.08 73.21 252.19M59.26 250.63C63.25 250.72 67.13 250.77 73.52 250.43M73.33 251C74.54 252.98 77.8 253.63 76.64 252.99M73.74 250.91C73.04 248.91 76.02 253.24 75.72 254.48M76.34 253.17C76.62 256.75 75.53 262.49 76.72 263.3M75.95 254.13C76.4 257.87 75.94 261.41 76.11 264.4M76 264.33C74.44 265.86 74.18 265.16 72.87 266.86M74.24 262.52C76.3 265.3 77.05 268.41 73.01 267.81M73.34 266.07C68.3 267.81 64.48 266.84 59.29 267.16M72.97 267.17C69.74 266.27 66.95 266.69 59.36 266.76M58.67 267C55.12 266.91 57.88 267.8 55.32 262.43M58.15 267.04C59.01 266.09 57.86 264.18 54.09 264.63M56.49 263.56C55.21 262.05 55.9 258 56.52 252.73M55.86 264.45C55.67 261.46 56.13 259.5 55.58 253.43M56 253.67C55.44 250.11 58.12 252.46 57.43 250.88M54.01 253.16C56.05 252.14 58.32 248.86 59.64 253.05M58.67 251C58.67 251 58.67 251 58.67 251M58.67 251C58.67 251 58.67 251 58.67 251" fill="none" stroke="var(--ce-success)" stroke-width="1" stroke-linecap="round" stroke-linejoin="round"/><text xml:space="preserve" x="66" y="261.2" text-anchor="middle" font-family='"Excalifont","Virgil","Segoe Print","Comic Sans MS",ui-rounded,cursive' font-size="10" fill="var(--ce-on-accent)">5</text><text xml:space="preserve" x="86" y="261.2" text-anchor="start" font-family='"Excalifont","Virgil","Segoe Print","Comic Sans MS",ui-rounded,cursive' font-size="10" fill="var(--ce-ink)">the changelog gains one line describing the change</text><text xml:space="preserve" x="600" y="261.2" text-anchor="start" font-family='"Excalifont","Virgil","Segoe Print","Comic Sans MS",ui-rounded,cursive' font-size="10" fill="var(--ce-ink-muted)">a five-line script</text><path d="M791.14 251.59C814.96 248.13 838.12 251.26 867.26 251.14C870.12 253.11 871.97 252.68 870.79 253.34C870.6 256.47 871.29 260.95 868.92 264.01C869.95 266.42 867.41 269.77 868 269.47C848.2 267.87 824.35 270.1 788.65 265.92C785.83 266.69 786.34 268.99 787.63 264.54C785.58 261.21 786.57 256.57 785.49 254.78C788.28 249.79 784.84 252.6 791.07 252.95C788.83 251 788.83 251 788.83 251" fill="var(--ce-success)" stroke="none"/><path d="M787.46 250.32C814.14 249.76 841.54 250.1 868.52 251.87M788.61 251.65C807.53 250.97 825.81 250.36 867.39 250.59M867.17 251C867.81 250.04 869.12 251 870.49 254.06M865.81 252.34C869.47 251.21 869.06 253.55 868.45 253.59M869.39 253.46C869.81 256.72 869.41 259.97 870.17 265.8M870.29 253.88C869.65 258.39 870.31 262.65 870.23 265.06M870 265.17C869.64 267.89 867.92 269.25 866.87 266.71M869.01 265.94C871.32 268.22 870.59 269.03 866.49 269.16M868.48 267.24C844.73 268.47 819.24 267.91 789.03 266.85M867.44 267.35C836.56 268.14 807.33 268.18 788.14 268.64M788.83 268C785.66 268.98 787.01 267.85 786.87 265.89M788.28 269.25C787.9 269.49 785.61 268.46 785.14 266.31M786.13 265.38C785.83 262.32 785.92 260.57 786 254.12M785.99 264.78C786.25 261.18 786.45 256.61 785.71 254.21M786 253.83C785.97 250.83 785.94 250.76 789.5 252.26M787.39 254C785.61 252.7 786.11 251.55 789.92 250.02M788.83 251C788.83 251 788.83 251 788.83 251M788.83 251C788.83 251 788.83 251 788.83 251" fill="none" stroke="var(--ce-success)" stroke-width="1" stroke-linecap="round" stroke-linejoin="round"/><text xml:space="preserve" x="828" y="260.28" text-anchor="middle" font-family='"Excalifont","Virgil","Segoe Print","Comic Sans MS",ui-rounded,cursive' font-size="9" fill="var(--ce-on-accent)">objective</text><path d="M55.93 269.12C203.26 268.86 351.03 268.83 770.12 268.89M56.01 268.96C202.66 269.15 349.27 269.23 770.04 269.06" fill="none" stroke="var(--ce-border)" stroke-width="1" stroke-linecap="round" stroke-linejoin="round"/><path d="M57.61 273.73C63.64 272.12 67.09 273.92 73.54 274.01C73.82 273.75 77.83 272.84 76.27 276.48C77.33 279.78 76.62 282.08 76.08 288.39C76.01 287.42 74.73 291.72 73.15 292.34C69.11 288.34 64.24 288.96 58.94 291.45C56.85 288.49 54.94 290.3 55.58 289.39C55.23 284.92 56.83 282.31 55.75 275.84C54.23 274.06 57.84 271.92 60.41 275.83C58.67 274 58.67 274 58.67 274" fill="var(--ce-accent)" stroke="none"/><path d="M57.24 274.03C62.4 272.67 65.32 275.24 72.24 273.97M58.91 273.99C62.63 274.26 67.11 273.82 72.87 273.31M73.33 274C73.43 274.11 75.45 274.22 76.75 276.75M72.64 273.41C76.54 276.09 78.24 274.44 75.78 277.75M76.45 277.23C75.67 281.42 76.62 285.56 76.93 286.94M76.45 276.96C75.64 279.32 76.47 282.02 75.67 287.3M76 287.33C74.27 287.39 76.96 290.52 72.94 288.87M77.84 286.63C76.78 289.17 76.35 289.21 75.33 292.3M72.8 290.04C69.65 288.97 63.86 291.61 58.55 290.69M73.39 290.51C67.95 289.54 63.38 290.03 58.34 289.52M58.67 290C56.01 290.51 54.12 287.82 55.68 285.57M57.67 290.08C58.83 292.09 57.09 289.46 57.58 287.67M55.39 286.3C56.85 284.02 55.48 280.92 56.15 276.44M55.82 287.68C56.13 284.6 55.99 282.74 55.89 276.39M56 276.67C55.34 274.42 58.46 275.29 60.27 273.25M55.98 275.47C56.14 275.44 57.17 272.38 59.49 275.76M58.67 274C58.67 274 58.67 274 58.67 274M58.67 274C58.67 274 58.67 274 58.67 274" fill="none" stroke="var(--ce-accent)" stroke-width="1" stroke-linecap="round" stroke-linejoin="round"/><text xml:space="preserve" x="66" y="284.2" text-anchor="middle" font-family='"Excalifont","Virgil","Segoe Print","Comic Sans MS",ui-rounded,cursive' font-size="10" fill="var(--ce-on-accent)">6</text><text xml:space="preserve" x="86" y="284.2" text-anchor="start" font-family='"Excalifont","Virgil","Segoe Print","Comic Sans MS",ui-rounded,cursive' font-size="10" fill="var(--ce-ink)">the error a user sees is understandable without the source</text><text xml:space="preserve" x="600" y="284.2" text-anchor="start" font-family='"Excalifont","Virgil","Segoe Print","Comic Sans MS",ui-rounded,cursive' font-size="10" fill="var(--ce-ink-muted)">the evaluator</text><path d="M791.07 274.09C818.87 273.03 847.99 271.09 865.96 275.58C871.56 275.79 871.63 276.12 869.56 278.78C869.59 280.28 868.87 283.18 868.69 287.43C871.82 290.41 868.62 292.66 865.63 291.03C848.79 289.5 824.49 290.26 786.48 293.17C786.6 289.22 784.8 288.52 784.56 290.33C785.69 283.45 785.39 281.14 785.06 277.46C784.02 272.4 785.03 275.67 789.93 273.93C788.83 274 788.83 274 788.83 274" fill="var(--ce-accent)" stroke="none"/><path d="M789.34 274.03C818.76 273.5 849.71 275.03 867.59 273.7M788.28 273.59C806.9 274.36 825.71 273.27 866.77 273.48M867.17 274C869.83 274.52 870.28 275.11 870.57 277.59M867.84 274.98C868.7 273.92 870.61 275.29 868.49 276.78M869.47 277.25C870.51 281.03 870.04 284.72 870.33 287.69M869.86 276.75C869.88 279.9 869.91 283.18 869.91 287.99M870 288.17C869.52 289.86 869.87 291.11 866.92 291.81M868.73 286.92C868.44 288.6 870.1 290.48 868.11 289.99M867.97 291.17C845.59 292.14 826.18 292.23 788.32 290.35M867.85 290.68C842.66 290.06 819.54 290.16 788.57 291.41M788.83 291C786.29 292.39 787.18 288.76 787.13 288.98M787.95 292.28C787.77 291.37 785.07 289.83 787.58 289.34M785.31 288.19C785.47 286 785.61 283.24 785.73 276.06M785.96 287.96C785.63 284.35 786.17 280.72 785.94 277.17M786 276.83C785.89 274.74 786.18 273.64 788.69 274.82M785.97 276.52C785.67 275.92 788.52 274.92 789.82 272.82M788.83 274C788.83 274 788.83 274 788.83 274M788.83 274C788.83 274 788.83 274 788.83 274" fill="none" stroke="var(--ce-accent)" stroke-width="1" stroke-linecap="round" stroke-linejoin="round"/><text xml:space="preserve" x="828" y="283.28" text-anchor="middle" font-family='"Excalifont","Virgil","Segoe Print","Comic Sans MS",ui-rounded,cursive' font-size="9" fill="var(--ce-on-accent)">judged</text><path d="M55.77 295.77C272.79 297.1 489.91 296.8 903.96 296.17M55.96 296.02C229.58 295.95 403.31 295.95 903.94 296.04" fill="none" stroke="var(--ce-border)" stroke-width="1" stroke-linecap="round" stroke-linejoin="round"/><text xml:space="preserve" x="58" y="310.28" text-anchor="start" font-family='"Excalifont","Virgil","Segoe Print","Comic Sans MS",ui-rounded,cursive' font-size="9" fill="var(--ce-ink)">Five of the six are settled by code that costs nothing per run and cannot hallucinate a pass. The evaluator grades only the residue.</text><text xml:space="preserve" x="58" y="326.28" text-anchor="start" font-family='"Excalifont","Virgil","Segoe Print","Comic Sans MS",ui-rounded,cursive' font-size="9" fill="var(--ce-ink-muted)">At real size that routing is the whole game: sprint 3 of the published game-maker run carried 27 criteria for the level editor alone.</text><path d="M62.08 357.66C139.72 353.33 215.9 353.66 296.71 355.69C314.05 353.85 321.39 364 318.68 380.72C321.42 406.01 317.63 436.95 321.11 474.48C320.19 492.32 310.2 501.57 297.98 499.74C202.79 502.16 110.22 499.41 65.73 498.74C45.97 497.88 39.92 490.96 38.6 475.69C41.4 448.79 37.76 418.6 40.78 379.23C41.66 361.92 47.71 358.46 64.28 357.46C64 356 64 356 64 356" fill="var(--ce-surface)" stroke="none"/><path d="M62.37 355.21C149.01 355.1 232.9 355.55 296.19 356.09M64.25 355.32C125.38 357.76 185.51 357.98 296.43 356M296 356C310.6 356.55 321.58 365.37 320.89 379.33M295.04 355.9C311.37 354.27 319.17 364.52 321.16 380.77M319.97 379.05C319.32 406.18 321.43 432.97 321.68 476.23M319.16 379.86C320.55 405.31 319.8 431.27 319.75 476.56M320 476C318.63 493.53 312.29 500.7 295.7 501.02M319.61 477.87C322.06 491.86 310.36 501.63 297.69 499.62M295.56 499.55C215.74 499.76 133.44 500.43 62.77 500.62M295.23 499.65C217.86 498.72 138.51 499.13 63.32 500.54M64 500C49.98 501.85 40.14 491.46 39.01 477.84M62.39 499C47.08 502.01 41.41 492 40.81 477.06M38.49 474.57C39.16 454.51 40.17 434.15 41.13 380.16M40.71 475.5C38.25 441.32 39.67 407.65 39.41 379.08M40 380C41.49 362.93 46.58 354.22 63.54 355.58M41.93 378.49C42.22 362.98 48.12 356.38 62.68 358.05M64 356C64 356 64 356 64 356M64 356C64 356 64 356 64 356" fill="none" stroke="var(--ce-ink)" stroke-width="1.4" stroke-linecap="round" stroke-linejoin="round"/><path d="M45.44 363.84C44.96 416.21 45.12 466.5 46.05 491.6M45.31 364.73C45.17 408.22 44.84 452.6 44.71 491.33" fill="none" stroke="var(--ce-primary)" stroke-width="4" stroke-linecap="round" stroke-linejoin="round"/><text xml:space="preserve" x="58" y="374.12" text-anchor="start" font-family='"Excalifont","Virgil","Segoe Print","Comic Sans MS",ui-rounded,cursive' font-size="11" fill="var(--ce-primary)">1 - NEGOTIATE</text><text xml:space="preserve" x="58" y="395.2" text-anchor="start" font-family='"Excalifont","Virgil","Segoe Print","Comic Sans MS",ui-rounded,cursive' font-size="10" fill="var(--ce-ink)">The planner drafts the criteria and</text><text xml:space="preserve" x="58" y="413.2" text-anchor="start" font-family='"Excalifont","Virgil","Segoe Print","Comic Sans MS",ui-rounded,cursive' font-size="10" fill="var(--ce-ink)">the evaluator agrees them, up front.</text><path d="M55.86 423.53C140.06 423.71 225.08 424.42 303.96 424.15M55.85 424.24C127.85 423.87 199.69 423.89 303.9 424.18" fill="none" stroke="var(--ce-border)" stroke-width="1" stroke-linecap="round" stroke-linejoin="round"/><text xml:space="preserve" x="58" y="437.82" text-anchor="start" font-family='"Excalifont","Virgil","Segoe Print","Comic Sans MS",ui-rounded,cursive' font-size="8.5" fill="var(--ce-ink-subtle)">PUSH BACK ON</text><text xml:space="preserve" x="58" y="454.74" text-anchor="start" font-family='"Excalifont","Virgil","Segoe Print","Comic Sans MS",ui-rounded,cursive' font-size="9.5" fill="var(--ce-ink)">- the unmeasurable</text><text xml:space="preserve" x="58" y="470.74" text-anchor="start" font-family='"Excalifont","Virgil","Segoe Print","Comic Sans MS",ui-rounded,cursive' font-size="9.5" fill="var(--ce-ink)">- the impossible as written</text><text xml:space="preserve" x="58" y="486.74" text-anchor="start" font-family='"Excalifont","Virgil","Segoe Print","Comic Sans MS",ui-rounded,cursive' font-size="9.5" fill="var(--ce-ink)">- the assumption of unscheduled work</text><path d="M180.73 335.04C179.65 340.18 180.46 347.4 179.49 354.09M180.44 334.73C178.93 339.36 179.4 345.31 180.63 352.52" fill="none" stroke="var(--ce-accent)" stroke-width="1.2" stroke-linecap="round" stroke-linejoin="round" stroke-dasharray="1.5 5"/><path d="M365.13 357.62C426.06 356.54 491.28 353.28 594.36 353.83C614.08 355.57 620.85 362.45 621.95 380.09C621.89 412.24 620.88 450.96 618.23 477.12C618.68 490.16 611.37 501.39 594.26 501.19C525.82 499.96 455.5 500.31 365.99 498.1C346.44 502.33 338.24 489.95 339.72 478.58C337.19 442.4 338.15 405.5 338.84 381.33C342.38 365.02 350.23 357.08 362.49 353.54C364 356 364 356 364 356" fill="var(--ce-surface)" stroke="none"/><path d="M363.52 356.08C447.54 355.25 527.47 352.63 596.83 354.35M364.58 355.25C411.3 354.5 459.04 355.06 595.73 356.04M596 356C612.28 355.32 620.19 363.86 621.05 381.09M595.59 357.39C612.93 356.24 620.01 363.67 619.28 379.88M618.01 381.03C618.65 399.76 621.61 421.87 621.17 476.98M620.9 380.79C620.1 418.24 620.3 454.91 619.31 475.98M620 476C619.5 493.51 610.38 498.7 595.81 498.32M619.55 477.91C619.53 490.59 609.91 499.48 594.77 501.96M596.52 500.83C534.35 501.61 475.26 500.14 364.82 499.65M596.48 500.76C539.83 499.14 483.22 499.17 363.89 499.63M364 500C346.8 499.93 339.95 491.93 341.31 476.91M365.64 500.78C346.13 498.84 338.23 493.61 340.37 473.85M339.82 476.09C340.62 438.11 340.69 399.18 339.49 379.98M340.88 476.76C340.24 450.76 340.17 425.27 340.04 380.38M340 380C341.89 364.42 348.26 356.24 364.58 356.87M339.88 378.54C341.69 364.11 348.95 355.23 363.11 354.32M364 356C364 356 364 356 364 356M364 356C364 356 364 356 364 356" fill="none" stroke="var(--ce-ink)" stroke-width="1.4" stroke-linecap="round" stroke-linejoin="round"/><path d="M343.86 364.46C345.46 413.17 346.58 462.62 344.1 490.38M345.54 364.69C344.13 401.84 344.57 437.93 345.42 491.36" fill="none" stroke="var(--ce-accent)" stroke-width="4" stroke-linecap="round" stroke-linejoin="round"/><text xml:space="preserve" x="358" y="374.12" text-anchor="start" font-family='"Excalifont","Virgil","Segoe Print","Comic Sans MS",ui-rounded,cursive' font-size="11" fill="var(--ce-accent)">2 - GENERATE</text><text xml:space="preserve" x="358" y="395.2" text-anchor="start" font-family='"Excalifont","Virgil","Segoe Print","Comic Sans MS",ui-rounded,cursive' font-size="10" fill="var(--ce-ink)">The generator builds to the contract,</text><text xml:space="preserve" x="358" y="413.2" text-anchor="start" font-family='"Excalifont","Virgil","Segoe Print","Comic Sans MS",ui-rounded,cursive' font-size="10" fill="var(--ce-ink)">and cannot redefine what done means.</text><path d="M356.19 423.78C438.12 423.74 520.47 423.56 604.15 423.65M355.94 424.22C413.27 424.21 471.04 424.33 604.19 424.19" fill="none" stroke="var(--ce-border)" stroke-width="1" stroke-linecap="round" stroke-linejoin="round"/><text xml:space="preserve" x="358" y="437.82" text-anchor="start" font-family='"Excalifont","Virgil","Segoe Print","Comic Sans MS",ui-rounded,cursive' font-size="8.5" fill="var(--ce-ink-subtle)">THE GENERATOR IS HANDED</text><text xml:space="preserve" x="358" y="454.74" text-anchor="start" font-family='"Excalifont","Virgil","Segoe Print","Comic Sans MS",ui-rounded,cursive' font-size="9.5" fill="var(--ce-ink)">- the plan and the contract</text><text xml:space="preserve" x="358" y="470.74" text-anchor="start" font-family='"Excalifont","Virgil","Segoe Print","Comic Sans MS",ui-rounded,cursive' font-size="9.5" fill="var(--ce-ink)">- the last verdict, and nothing more</text><text xml:space="preserve" x="358" y="486.74" text-anchor="start" font-family='"Excalifont","Virgil","Segoe Print","Comic Sans MS",ui-rounded,cursive' font-size="9.5" fill="var(--ce-ink)">- never the grader’s reasoning</text><path d="M478.22 332.23C480.23 340.67 478.78 344.29 480.21 352.15M480.81 334.65C480.41 339.73 480.19 343.04 479.85 352.56" fill="none" stroke="var(--ce-accent)" stroke-width="1.2" stroke-linecap="round" stroke-linejoin="round" stroke-dasharray="1.5 5"/><path d="M663.79 357.59C716.81 355.35 766.67 357.3 896.4 356.37C914.11 357.29 920.31 366.11 920.02 379.46C922.37 404.48 918.93 426.57 920.56 474.57C922.38 493.2 912.53 501.21 895.74 497.43C848.85 499.81 800.78 498.85 661.84 501.86C646.9 501.58 641.75 494.15 640.84 476.26C639.18 450.02 639.54 425.6 642.1 378.22C637.91 362.92 647.55 355.7 665.89 354.82C664 356 664 356 664 356" fill="var(--ce-surface)" stroke="none"/><path d="M664.67 356.96C742.68 359.72 825.42 357.42 897.48 356.01M663.22 355.19C743.61 355.57 823.68 356.45 896.73 356.07M896 356C913.96 354.09 918.79 362.35 921.22 378.84M896.15 354.88C909.9 358.22 920.86 362.81 921.99 378.99M920.05 379.01C920.09 412.54 919.9 449.17 920.65 477.72M920.64 379.73C919.54 409.97 918.68 440.16 920.88 475.4M920 476C920.38 493.49 912.47 500.69 895.92 499.61M919.49 477.95C921.61 493.92 914.06 501.93 896.44 499.71M897.48 498.72C809.94 499.14 720.89 498.91 663.49 498.67M896.03 500.18C815.4 499.55 733.43 499.21 664.45 500.41M664 500C647.63 498.01 639.76 492.39 639.6 475.98M664.89 498.57C649.78 500.27 639.65 490.63 639.94 475.24M641.15 477.61C639.97 440.91 639.09 402.6 641.85 379.79M639.04 476.02C640.24 438.99 640.68 402.5 640.67 379.67M640 380C638.3 365.91 649.94 354.26 665.62 354.16M641.82 378.6C641.17 365.25 649.78 354.09 663.55 355.19M664 356C664 356 664 356 664 356M664 356C664 356 664 356 664 356" fill="none" stroke="var(--ce-ink)" stroke-width="1.4" stroke-linecap="round" stroke-linejoin="round"/><path d="M644.68 365.08C644.28 412.52 643.98 461.14 644.56 491.55M644.58 364.64C645.96 394.25 645.96 423.26 644.93 491.38" fill="none" stroke="var(--ce-success)" stroke-width="4" stroke-linecap="round" stroke-linejoin="round"/><text xml:space="preserve" x="658" y="374.12" text-anchor="start" font-family='"Excalifont","Virgil","Segoe Print","Comic Sans MS",ui-rounded,cursive' font-size="11" fill="var(--ce-success)">3 - JUDGE</text><text xml:space="preserve" x="658" y="395.2" text-anchor="start" font-family='"Excalifont","Virgil","Segoe Print","Comic Sans MS",ui-rounded,cursive' font-size="10" fill="var(--ce-ink)">The evaluator scores the work against</text><text xml:space="preserve" x="658" y="413.2" text-anchor="start" font-family='"Excalifont","Virgil","Segoe Print","Comic Sans MS",ui-rounded,cursive' font-size="10" fill="var(--ce-ink)">the same contract, criterion by criterion.</text><path d="M655.54 424.04C736.18 423.78 816.84 423.69 904.34 424.13M656.04 424.2C748.79 423.7 841.58 423.42 903.99 424.2" fill="none" stroke="var(--ce-border)" stroke-width="1" stroke-linecap="round" stroke-linejoin="round"/><text xml:space="preserve" x="658" y="437.82" text-anchor="start" font-family='"Excalifont","Virgil","Segoe Print","Comic Sans MS",ui-rounded,cursive' font-size="8.5" fill="var(--ce-ink-subtle)">THE VERDICT</text><text xml:space="preserve" x="658" y="454.74" text-anchor="start" font-family='"Excalifont","Virgil","Segoe Print","Comic Sans MS",ui-rounded,cursive' font-size="9.5" fill="var(--ce-ink)">- PASS ships the sprint</text><text xml:space="preserve" x="658" y="470.74" text-anchor="start" font-family='"Excalifont","Virgil","Segoe Print","Comic Sans MS",ui-rounded,cursive' font-size="9.5" fill="var(--ce-ink)">- NEEDS_WORK names the criterion</text><text xml:space="preserve" x="658" y="486.74" text-anchor="start" font-family='"Excalifont","Virgil","Segoe Print","Comic Sans MS",ui-rounded,cursive' font-size="9.5" fill="var(--ce-ink)">- returns to 2, capped at 3 revisions</text><path d="M779.51 333.21C780.8 341.16 780.89 344.98 780.94 354M779.29 334.57C779.57 338.2 780.56 340.77 779.07 352.59" fill="none" stroke="var(--ce-accent)" stroke-width="1.2" stroke-linecap="round" stroke-linejoin="round" stroke-dasharray="1.5 5"/><path d="M320.62 426.63C326.13 427.11 331.65 428.35 335.88 429.47M321.6 428.72C326.78 427.41 330.46 428.48 337.03 428.09" fill="none" stroke="var(--ce-ink-muted)" stroke-width="1.3" stroke-linecap="round" stroke-linejoin="round"/><path d="M326.96 423.51 L337 428 L326.96 432.49" fill="none" stroke="var(--ce-ink-muted)" stroke-width="1.3" stroke-linecap="round" stroke-linejoin="round"/><path d="M622.62 428.88C628.07 428.01 634.5 429 637.03 427.15M621.76 427.49C627.33 427.96 633.89 428.11 636.29 428.5" fill="none" stroke="var(--ce-ink-muted)" stroke-width="1.3" stroke-linecap="round" stroke-linejoin="round"/><path d="M626.96 423.51 L637 428 L626.96 432.49" fill="none" stroke="var(--ce-ink-muted)" stroke-width="1.3" stroke-linecap="round" stroke-linejoin="round"/><text xml:space="preserve" x="40" y="528.58" text-anchor="start" font-family='"Excalifont","Virgil","Segoe Print","Comic Sans MS",ui-rounded,cursive' font-size="11.5" fill="var(--ce-ink)">The bar was written before the work, by a different role, so the generator cannot pass by lowering it.</text><text xml:space="preserve" x="40" y="552.58" text-anchor="start" font-family='"Excalifont","Virgil","Segoe Print","Comic Sans MS",ui-rounded,cursive' font-size="11.5" fill="var(--ce-ink-muted)">Even a short explicit list turns &quot;make it good&quot; into something an independent grader can check line by line.</text>
</svg>
