<?xml version="1.0" encoding="UTF-8"?>
<svg xmlns="http://www.w3.org/2000/svg" viewBox="0 0 960 636" role="img" aria-labelledby="t d">
  <title id="t">The six failure modes placed at the loop stage where each strikes, and where each fix installs</title>
  <desc id="d">A hand-drawn figure in two tiers. The upper tier has the agent loop on the left, drawn as REASON, ACT and OBSERVE inside a dashed ring that stands for every turn taken together, with the thing to watch printed inside each stage box: the stop decision at reason, the tool call at act, repetition at observe. On the right, four cards place the six modes at the stage where each strikes and give the trace signal for each. At reason, the judgement failures: three, one-shotting, where one turn does almost everything, and one, victory declaration, where the run completed but a later check failed. At act, the blast-radius failure: six, destructive action, a deny-listed command attempted; the card adds that blocked, denied and refused are successes on the tool span, while ok on a deny-listed command is the incident. At observe, the iteration failures: four, doom loop, identical tool and arguments across turns, and two, context anxiety, quality falling with turn index. Across turns, the consistency failure: five, silent drift, the same finding run after run; the card adds that if the rule was never in the assembled prompt this is a missing memory file rather than drift. The lower tier is a six-row table headed the address of a failure is not always the address of its fix, giving for each mode where the symptom shows and where the fix installs: victory declaration shows at reason and is fixed at the loop exit, before stop 1 can fire; context anxiety has no single stage and is fixed between turns by compaction; one-shotting shows at reason and is fixed before the run, when the plan is written; doom loop shows at observe and is fixed at the turn-end check, stop 4, on a window of three identical calls; silent drift spans every turn and is fixed at session start when memory is injected and again pre-tool; destructive action shows at act and is fixed before the call. Closing lines record the working rule, instrument where the symptom shows and install the fix where it is controlled; that five of the six are performance failures while destructive action alone is a safety failure; and a section 3 worked example, in which stop 4 ends a doom loop at turn 6 for about 84,000 input tokens where the 40-turn cap alone would cost about 3.28 million, a factor of 39.</desc>

  <style><![CDATA[
    :root{--ce-bg:#FAFAF7;--ce-surface:#FFFFFF;--ce-ink:#1A1A1A;--ce-ink-muted:#5C5C5C;--ce-ink-subtle:#9A9A9A;--ce-border:#D9D9D4;--ce-primary:#5B7FBF;--ce-accent:#D98E5F;--ce-success:#5C9E78;--ce-warn:#B8895A;--ce-alert:#C66B5E;--ce-neutral-1:#EAEAE4;--ce-neutral-2:#CFCFC8;--ce-neutral-3:#8E8E88;--ce-on-fill:#FFFDF9;--ce-on-accent:#1A1A1A;}
    @media (prefers-color-scheme:dark){:root{--ce-bg:#0E0F12;--ce-surface:#16181C;--ce-ink:#F2F2EE;--ce-ink-muted:#B4B4AE;--ce-ink-subtle:#6E6E68;--ce-border:#2A2D33;--ce-primary:#8BA8E0;--ce-accent:#E8B088;--ce-success:#7FBF9B;--ce-warn:#D4B58A;--ce-alert:#D88880;--ce-neutral-1:#1F2229;--ce-neutral-2:#2C3038;--ce-neutral-3:#6E6E68;--ce-on-fill:#14161A;--ce-on-accent:#1A1A1A;}}
    .bg{fill:var(--ce-bg);}
    text{dominant-baseline:auto;}
  ]]></style>

  <rect class="bg" width="960" height="636"/>
<text xml:space="preserve" x="480" y="38.24" text-anchor="middle" font-family='"Excalifont","Virgil","Segoe Print","Comic Sans MS",ui-rounded,cursive' font-size="22" fill="var(--ce-ink)">Where each failure strikes in the loop</text><text xml:space="preserve" x="480" y="61.96" text-anchor="middle" font-family='"Excalifont","Virgil","Segoe Print","Comic Sans MS",ui-rounded,cursive' font-size="13" fill="var(--ce-ink-muted)">Failures cluster at loop stages, and the stage that shows the symptom is rarely the stage that carries the fix.</text><text xml:space="preserve" x="40" y="95.2" text-anchor="start" font-family='"Excalifont","Virgil","Segoe Print","Comic Sans MS",ui-rounded,cursive' font-size="10" fill="var(--ce-ink-subtle)">THE LOOP, AND WHERE DETECTION SITS</text><text xml:space="preserve" x="408" y="95.2" text-anchor="start" font-family='"Excalifont","Virgil","Segoe Print","Comic Sans MS",ui-rounded,cursive' font-size="10" fill="var(--ce-ink-subtle)">THE SIX MODES, NUMBERED AS IN THE FIRST FIGURE</text><path d="M64.46 100.67C175.39 97.2 288.71 97.96 356.02 99.15M63.57 99.54C174.66 101.29 285.27 101.4 355.78 100.42M356 100C371.7 98.51 381.75 106.04 380.12 124.81M354.33 98.94C372.62 100.59 377.82 108.24 380.12 125.48M379.06 123.12C380.48 179.12 377.64 236.06 381.12 301.95M380 123.26C379.23 162.91 378.9 203.59 379.91 300.47M380 300C381.56 315.45 372.98 323.25 355.2 322.4M381.33 301.34C380.58 314.94 374.08 324.95 354.26 322.16M356.1 323.37C277.33 324.06 199.29 322.67 65.29 324.11M355.9 323.31C286.78 325.7 218.06 324.99 63.57 324.07M64 324C48.77 323.3 39.57 314.42 40.96 299.15M65.8 323.25C49.7 324.95 41.66 317.44 41.51 298.09M40.09 301.48C43.52 244.31 41.93 191.32 39.12 123.16M40.69 299.22C40.24 262.65 41.17 225.03 39.81 124.83M40 124C41.1 106.72 49.86 98.85 62.1 99.53M38.18 125.15C38.33 108.09 46.46 100.55 62.37 101.46M64 100C64 100 64 100 64 100M64 100C64 100 64 100 64 100" fill="none" stroke="var(--ce-accent)" stroke-width="1.3" stroke-linecap="round" stroke-linejoin="round" stroke-dasharray="9 7"/><path d="M175.22 126.26C238.77 126.92 297.23 126.37 338.53 125.97C347.38 126.1 346.59 131.15 350.1 134.25C346.63 147 349.85 157.06 346.79 169.53C345.45 175.6 345.11 182.38 336.74 179.45C297.91 182 259.73 178.55 178.63 180C168.8 181.21 168.34 179.47 167.29 172.02C168.09 165.29 169.97 154.73 168.89 132.92C168.31 129.65 169.39 127.99 174.87 126C177 126 177 126 177 126" fill="var(--ce-surface)" stroke="none"/><path d="M176.28 125.9C213.8 124.89 247.82 125.57 340.55 125.76M176.64 125.74C220.64 128.14 263.32 127.04 339.72 125.11M339 126C343.39 127.67 349.99 127.26 348.14 133.06M337.74 125.44C342.83 127.19 350.08 128.33 348.78 133.89M346.51 136.12C347.7 148.18 347.12 161.15 346.89 170.83M348.71 135.08C348.26 148.64 348.57 161.65 347.51 170.87M348 171C347.82 176.81 345.8 180.16 338.21 179.97M346.41 169.07C346.68 175.4 343.69 178.66 338.25 178.37M339.6 178.2C306.67 178.17 271.67 180.44 178.58 179.67M338.09 180.29C293.54 180.36 248.47 180.27 177.94 180.9M177 180C170.76 181.68 166.46 177.28 168.44 171.89M178.74 178.69C171.36 179.4 170.2 174.82 167.38 171.73M168.94 172.98C169.13 158.27 169.27 144.77 169.88 133.78M167.25 171.43C168.81 160.8 168.15 150.03 167.32 134.67M168 135C166.23 130.76 171.2 125.4 176.65 126.01M168.17 134.34C169.62 130.44 169.95 127.28 176.66 125.45M177 126C177 126 177 126 177 126M177 126C177 126 177 126 177 126" fill="none" stroke="var(--ce-primary)" stroke-width="1.5" stroke-linecap="round" stroke-linejoin="round"/><text xml:space="preserve" x="258" y="146.96" text-anchor="middle" font-family='"Excalifont","Virgil","Segoe Print","Comic Sans MS",ui-rounded,cursive' font-size="13" fill="var(--ce-primary)">REASON</text><text xml:space="preserve" x="258" y="164.82" text-anchor="middle" font-family='"Excalifont","Virgil","Segoe Print","Comic Sans MS",ui-rounded,cursive' font-size="8.5" fill="var(--ce-ink-subtle)">watch: the stop decision</text><path d="M220.67 243.3C265 244.79 311.77 243.55 338.72 243.84C345.02 241.74 346.44 246.37 349.57 252.55C348.05 266.22 348.72 277.93 348.84 291.56C345.52 292.54 346.38 300.33 340.93 298.31C298.19 297.98 264.29 298.35 223.19 296.84C213.87 299 210.94 296.72 214.43 287.49C211.36 280.5 209.3 268 213.31 252.91C213.46 248.97 216.44 242.3 223.58 243.88C221 244 221 244 221 244" fill="var(--ce-surface)" stroke="none"/><path d="M220.29 244.91C258.41 243.31 296.98 243.01 337.12 242.48M221.29 244.81C258.74 244.19 296.79 243.38 338.77 244.76M339 244C343.49 243.15 346.7 245.94 348.18 254.81M338.99 244.93C343.68 242.38 349.06 248.18 346.17 253.32M348.89 252.11C347.69 260.67 345.88 270.06 348.2 290.49M348.81 253.51C347.98 261.32 348.17 271.87 348.3 289.08M348 289C346.61 295.89 345.28 296.89 338.24 298.69M349.67 289.26C350.17 296.4 342.73 299 341.21 297.01M337 297.34C314.15 299.58 288.12 298.25 222.15 296.27M339.76 297.92C312.98 298.85 286.5 299.37 220.49 297.34M221 298C215.71 298.79 211.13 296.86 210.89 287.09M222.53 298.99C215.94 297.37 211.25 295.77 214.19 288.43M211.48 288.48C211.23 281.01 212.57 269.82 210.16 254.64M212.93 289.04C212.35 275.85 212.91 263.24 211.86 253.21M212 253C213.61 245.9 214.2 245.04 221.3 245.46M210.16 254.9C209.72 247.92 215.43 242.88 219.94 242.01M221 244C221 244 221 244 221 244M221 244C221 244 221 244 221 244" fill="none" stroke="var(--ce-alert)" stroke-width="1.5" stroke-linecap="round" stroke-linejoin="round"/><text xml:space="preserve" x="280" y="264.96" text-anchor="middle" font-family='"Excalifont","Virgil","Segoe Print","Comic Sans MS",ui-rounded,cursive' font-size="13" fill="var(--ce-alert)">ACT</text><text xml:space="preserve" x="280" y="282.82" text-anchor="middle" font-family='"Excalifont","Virgil","Segoe Print","Comic Sans MS",ui-rounded,cursive' font-size="8.5" fill="var(--ce-ink-subtle)">watch: the tool call</text><path d="M74.13 242.34C114.88 244.78 149.99 242.87 174.9 243.72C178.67 244.57 182.29 248.78 185.05 252.86C185.47 262.24 183.6 275.6 181.69 290.39C181.58 296.67 178.44 300.28 175.91 299.18C155.86 295.91 132.05 300.12 70.54 295.69C66.94 298.8 61.53 295.98 64.37 290.17C63.01 277.71 62.2 263.28 65.73 254.9C61.4 245.09 66.29 243.82 75.09 243.75C73 244 73 244 73 244" fill="var(--ce-surface)" stroke="none"/><path d="M72.29 245.92C97.31 243.36 118.71 246.06 173.69 245.19M73.94 243.88C112.45 245.15 149.49 244.63 175.82 244.4M175 244C179.58 244.64 183.41 246.62 184.23 254.56M176.23 242.43C180.52 244.17 184.03 245.44 184.17 254.75M183.26 254.11C183.67 266.36 184.64 279.38 185.52 288.15M184.92 253.95C184.48 265.21 184.57 276.49 183.09 289.28M184 289C185.39 296.98 180.76 299.62 174.27 299.41M184.93 287.46C185.06 294.8 182.38 296.75 175.58 297.65M174.4 298.48C152.26 296.11 125.82 299.18 73.72 298.86M175.44 297.55C138.13 299.51 101.97 298.64 73.03 297.77M73 298C68.66 297.9 63.81 294.45 65.33 288.29M74.33 297.3C68.52 297.35 64.89 294.12 64.4 287.14M62.03 289.99C65.33 274.54 63.87 262.48 62.44 253.5M64.61 288.66C63.88 274.9 63.67 260.45 64.4 253.74M64 253C65 247.03 65.2 242.68 73.94 242.9M64.14 253.46C62.41 247.39 68.91 245.08 71.23 245.17M73 244C73 244 73 244 73 244M73 244C73 244 73 244 73 244" fill="none" stroke="var(--ce-warn)" stroke-width="1.5" stroke-linecap="round" stroke-linejoin="round"/><text xml:space="preserve" x="124" y="264.96" text-anchor="middle" font-family='"Excalifont","Virgil","Segoe Print","Comic Sans MS",ui-rounded,cursive' font-size="13" fill="var(--ce-warn)">OBSERVE</text><text xml:space="preserve" x="124" y="282.82" text-anchor="middle" font-family='"Excalifont","Virgil","Segoe Print","Comic Sans MS",ui-rounded,cursive' font-size="8.5" fill="var(--ce-ink-subtle)">watch: repetition</text><path d="M307.3 180.93C301.69 200.32 300.25 222.01 293.26 240.91M307.6 182.94C305.05 196.79 302.42 210.5 293.87 241.05" fill="none" stroke="var(--ce-ink-muted)" stroke-width="1.3" stroke-linecap="round" stroke-linejoin="round"/><path d="M300.68 232.26 L294 241 L291.95 230.19" fill="none" stroke="var(--ce-ink-muted)" stroke-width="1.3" stroke-linecap="round" stroke-linejoin="round"/><path d="M211.97 272.94C201.93 270.39 193.5 271.78 188.79 271.81M209.81 270.3C203.76 270.88 195.48 271.4 188.88 271.6" fill="none" stroke="var(--ce-ink-muted)" stroke-width="1.3" stroke-linecap="round" stroke-linejoin="round"/><path d="M198.04 275.49 L188 271 L198.04 266.51" fill="none" stroke="var(--ce-ink-muted)" stroke-width="1.3" stroke-linecap="round" stroke-linejoin="round"/><path d="M148.64 242.94C152.08 230.34 158.27 219.24 174.31 185.72M148.03 241.66C154.17 230.14 160.9 217.39 175.9 183.15" fill="none" stroke="var(--ce-ink-muted)" stroke-width="1.3" stroke-linecap="round" stroke-linejoin="round"/><path d="M167.59 191.1 L176 184 L175.67 195" fill="none" stroke="var(--ce-ink-muted)" stroke-width="1.3" stroke-linecap="round" stroke-linejoin="round"/><text xml:space="preserve" x="44" y="338.74" text-anchor="start" font-family='"Excalifont","Virgil","Segoe Print","Comic Sans MS",ui-rounded,cursive' font-size="9.5" fill="var(--ce-accent)">the dashed ring is every turn, taken together</text><path d="M428.61 98.08C482.74 100.97 538.23 99.38 633.09 101.02C646.55 100.25 651.95 108.77 653.82 121.96C653.65 140.34 654.49 160.91 656.48 200.45C653.45 208.91 646.1 220.17 632.88 217.74C594.35 219.91 549.27 217.74 428.18 219.72C415.26 218.32 409.19 208.95 410.5 197.09C407.25 170.74 409.36 140.27 408.97 121.01C406.34 104.26 414.04 99.88 428.62 97.73C427.67 100 427.67 100 427.67 100" fill="var(--ce-surface)" stroke="none"/><path d="M429.43 99.06C487.29 98.08 542.98 98.44 635.54 99.58M428.08 100.33C505.9 99.56 583.45 100.29 634.27 100.22M634.33 100C648.91 98.76 655.06 107.76 654.34 117.98M634.46 101.93C645.87 99.76 656.25 107.8 654.22 121.68M653.47 118.77C654.86 147.65 651.64 177.11 655.92 198.68M653.85 120.3C654.51 136.69 655.03 154.12 654.26 198.43M654 198.33C655.22 211.95 645.99 217.98 633.67 218.41M654.53 197.9C655.55 212.11 648.12 219.14 632.63 219.14M633.15 219.6C550.88 216.32 470.77 216.32 427.42 219.41M633.45 218.02C576.05 218.89 518.42 219.96 428.24 217.51M427.67 218C413.11 218.5 408.05 211.92 409.7 197.76M428.52 217.34C415.89 215.75 408.12 212.85 407.29 196.52M407.96 198.84C408.52 168.63 407.18 137.02 409.76 121.51M408.54 198.43C409.07 168.89 407.73 139.04 408.98 120.32M408 119.67C408.89 107.9 413.1 98.51 427.45 98.27M406.11 119.43C406.5 107.25 415.32 101.61 425.75 100.89M427.67 100C427.67 100 427.67 100 427.67 100M427.67 100C427.67 100 427.67 100 427.67 100" fill="none" stroke="var(--ce-ink)" stroke-width="1.3" stroke-linecap="round" stroke-linejoin="round"/><path d="M413.39 110.17C412.74 140.79 413.86 172.48 412.33 209.26M413.41 109.44C414.14 135.7 413.69 161.9 413.57 209.48" fill="none" stroke="var(--ce-primary)" stroke-width="4" stroke-linecap="round" stroke-linejoin="round"/><text xml:space="preserve" x="424" y="117.2" text-anchor="start" font-family='"Excalifont","Virgil","Segoe Print","Comic Sans MS",ui-rounded,cursive' font-size="10" fill="var(--ce-primary)">AT REASON - THE MODEL DECIDES</text><text xml:space="preserve" x="424" y="131.74" text-anchor="start" font-family='"Excalifont","Virgil","Segoe Print","Comic Sans MS",ui-rounded,cursive' font-size="9.5" fill="var(--ce-ink-muted)">the judgement failures</text><path d="M424.17 137.73C472.12 137.99 519.74 137.75 637.86 137.78M423.83 137.95C492.79 138.66 561.47 138.63 638 138.12" fill="none" stroke="var(--ce-border)" stroke-width="1" stroke-linecap="round" stroke-linejoin="round"/><path d="M428.27 144.77C430.85 145.35 432.19 145.79 443.7 144.35C443.7 146.5 443.7 146.99 444.94 148.9C447.29 152.87 446.33 155.3 446.4 160.25C443.82 158.48 447.55 164.08 445.22 161.45C437.17 161.74 431.95 160.71 426.64 160.6C423.97 161.98 426.31 159.05 426.54 160.65C424.91 157.21 424.35 152.47 422.98 147.53C425.97 144.11 426.05 145.68 426.97 144.26C426.83 145 426.83 145 426.83 145" fill="var(--ce-primary)" stroke="none"/><path d="M426.28 146.6C430.34 145.74 434.48 144.72 443.97 145.04M426.47 145.12C429.44 144.16 434.23 144.67 442.36 145.81M443.17 145C444.02 143.57 444.25 144.29 446.41 148.4M441.36 145.42C443.36 143.14 446.54 147.21 444.95 146.1M446.43 148.45C445.25 150.53 445.29 155.12 445.3 160.17M445.64 148.22C445.67 150.15 445.49 152.75 446.14 158.66M446 159.17C446.53 159.37 446.73 162.52 442.55 162.27M447.95 158.39C447.23 159.05 447.19 160.91 441.81 164.21M443.99 162.84C439 162.99 433.39 163.53 426.02 161.38M442.46 162.06C438.54 161.82 433.37 161.46 427.01 161.59M426.83 162C426.42 162.35 422.51 162.83 423.1 159.26M427.34 162.52C424.18 161.23 422.25 162.77 421.84 161.33M424.12 158.61C424.49 154.56 424.11 150.36 423.75 147.8M423.63 159.24C424.5 154.34 423.77 150.73 424.3 148.33M424 147.83C422.53 146.51 423.16 146.25 426.36 145.67M424.08 146.53C425.18 144.23 423.57 145.67 426.79 145.03M426.83 145C426.83 145 426.83 145 426.83 145M426.83 145C426.83 145 426.83 145 426.83 145" fill="none" stroke="var(--ce-primary)" stroke-width="1" stroke-linecap="round" stroke-linejoin="round"/><text xml:space="preserve" x="435" y="156.2" text-anchor="middle" font-family='"Excalifont","Virgil","Segoe Print","Comic Sans MS",ui-rounded,cursive' font-size="10" fill="var(--ce-on-accent)">3</text><text xml:space="preserve" x="454" y="155.04" text-anchor="start" font-family='"Excalifont","Virgil","Segoe Print","Comic Sans MS",ui-rounded,cursive' font-size="12" fill="var(--ce-ink)">One-shotting</text><text xml:space="preserve" x="454" y="170.28" text-anchor="start" font-family='"Excalifont","Virgil","Segoe Print","Comic Sans MS",ui-rounded,cursive' font-size="9" fill="var(--ce-ink-muted)">one turn does almost everything</text><path d="M427.02 179.14C431.63 180.84 434.7 177.7 442.48 179.63C447.5 177.35 443.51 179.01 444.23 179.83C445.35 184.06 447.38 186.95 445 192.38C445.64 194.53 447.5 198.02 443.87 198.34C439.27 196.08 436.27 194.98 428.66 194.76C423.67 195.71 426.17 195.52 425.53 194.75C425.3 189.06 422.73 184.78 425.26 183.03C425.77 181.6 423.18 178.23 426.32 181.56C426.83 179 426.83 179 426.83 179" fill="var(--ce-primary)" stroke="none"/><path d="M425.2 180.61C428.97 180.36 433.84 178.26 442.41 178.73M427.18 178.65C431.84 178.94 437.71 178.68 442.41 178.33M443.17 179C446.81 178.21 445.19 179.19 446.47 183.4M443.02 177.42C446.02 179.53 445.18 182.16 447.61 183.54M445.2 182.45C446.33 183.92 446.96 187.87 447.05 193.91M446.1 181.8C445.88 184.35 445.99 187.4 446.36 193.57M446 193.17C447.57 194.82 446.04 196.16 442.6 194.56M444.3 191.31C444.22 195.52 442.85 194.96 441.16 194.46M442.25 197C440.79 196.7 435.33 197.68 425.55 197.12M443.19 196.75C439.04 195.17 433.43 196.01 427.06 196.61M426.83 196C426.35 197.83 422.07 196.27 425.03 192.19M427.07 194.26C423.42 198.26 424.44 196.11 422.52 192.07M423.77 193.74C425.09 190.2 424.1 186.58 423.21 180.94M423.76 193.7C424.08 189.72 424.28 185.68 424.33 181.98M424 181.83C423.04 180.68 424.5 178.44 428.56 177.59M424.06 181.28C424.58 179.06 425.55 178 427.37 180.18M426.83 179C426.83 179 426.83 179 426.83 179M426.83 179C426.83 179 426.83 179 426.83 179" fill="none" stroke="var(--ce-primary)" stroke-width="1" stroke-linecap="round" stroke-linejoin="round"/><text xml:space="preserve" x="435" y="190.2" text-anchor="middle" font-family='"Excalifont","Virgil","Segoe Print","Comic Sans MS",ui-rounded,cursive' font-size="10" fill="var(--ce-on-accent)">1</text><text xml:space="preserve" x="454" y="189.04" text-anchor="start" font-family='"Excalifont","Virgil","Segoe Print","Comic Sans MS",ui-rounded,cursive' font-size="12" fill="var(--ce-ink)">Victory declaration</text><text xml:space="preserve" x="454" y="204.28" text-anchor="start" font-family='"Excalifont","Virgil","Segoe Print","Comic Sans MS",ui-rounded,cursive' font-size="9" fill="var(--ce-ink-muted)">completed, but a later check failed</text><path d="M692.51 100.56C766.51 98.22 838.51 100.16 898.27 102.08C914.48 100.39 922.51 108.84 917.53 119.8C920.72 135.66 919.16 153.37 920.97 198.85C921.45 212.97 915.83 219.95 899.69 218.03C826.26 218.15 748.66 216.87 693.24 216.83C678.98 217.44 676.03 209.18 674.52 200.02C671.71 174.02 674.06 154.02 675.04 119.24C675.56 106.5 681.13 97.78 692.5 100.67C693.67 100 693.67 100 693.67 100" fill="var(--ce-surface)" stroke="none"/><path d="M694.27 101.77C762.98 97.44 834.01 97.55 901.37 99.37M693.04 99.11C753.36 98.67 814.31 97.54 899.57 99.45M900.33 100C913.99 99.85 920.14 106.71 920.53 118.24M901.84 100.42C912.47 98.33 917.81 105.11 919.67 120.21M920.43 120.75C918.47 147.36 920.62 174.23 920.94 199.2M920.99 118.85C920.96 139.56 919.68 160.88 919.02 198.65M920 198.33C918.62 212.66 913.73 217.79 899.8 218.85M918.64 199.4C919.82 209.77 911.49 217.02 902.29 217.31M900.99 219.25C819.99 216.64 741.61 218.18 695.31 217.56M901.16 217.78C841.88 216.92 784.36 215.59 693.97 217.99M693.67 218C681.9 217.32 675.64 212.11 672.95 200.29M693.63 218C678.26 218.69 672.03 211.83 673.2 198.58M672.99 197.36C672.36 178.19 673.53 163.01 675.65 120.56M673.82 198.11C675.21 178.02 675.2 159.47 674.63 119.31M674 119.67C673.55 107.47 681.45 101.63 693.59 100.52M674.04 119.86C673.97 106.5 678.53 101.93 694.78 97.73M693.67 100C693.67 100 693.67 100 693.67 100M693.67 100C693.67 100 693.67 100 693.67 100" fill="none" stroke="var(--ce-ink)" stroke-width="1.3" stroke-linecap="round" stroke-linejoin="round"/><path d="M678.61 109.6C678.71 146.47 679.01 184.27 678.22 209.12M678.71 108.62C679.53 146.38 678.79 185.04 679.09 208.96" fill="none" stroke="var(--ce-alert)" stroke-width="4" stroke-linecap="round" stroke-linejoin="round"/><text xml:space="preserve" x="690" y="117.2" text-anchor="start" font-family='"Excalifont","Virgil","Segoe Print","Comic Sans MS",ui-rounded,cursive' font-size="10" fill="var(--ce-alert)">AT ACT - A TOOL RUNS</text><text xml:space="preserve" x="690" y="131.74" text-anchor="start" font-family='"Excalifont","Virgil","Segoe Print","Comic Sans MS",ui-rounded,cursive' font-size="9.5" fill="var(--ce-ink-muted)">the blast-radius failure</text><path d="M689.83 137.47C751.64 137.8 812.35 138.54 903.81 137.71M690.04 138.11C740.04 137.86 790.54 137.8 903.79 137.89" fill="none" stroke="var(--ce-border)" stroke-width="1" stroke-linecap="round" stroke-linejoin="round"/><path d="M692.34 147.04C698 147 703.58 146.43 708.94 145.32C711.63 146.65 714.27 147.05 713.85 146.74C710.97 152.08 711.6 154.74 711.54 159.34C711.82 162.55 712.08 163.87 706.83 161.74C702.74 161.12 698.53 160.91 691.78 162.18C692.88 161.1 687.96 159.29 690.55 158.39C690.24 156.96 689.81 153.1 689.02 146.52C690 146.36 693.14 143.57 690.85 147.2C692.83 145 692.83 145 692.83 145" fill="var(--ce-alert)" stroke="none"/><path d="M691.22 145.82C697.61 144.94 704.94 143.69 709.81 144.85M693.14 145.64C698.36 145.11 702.97 145.56 709.35 145.1M709.17 145C709.09 144.66 713.32 147.23 712.61 148.66M708.75 143.91C709.95 146.31 712.71 144.53 710.39 149.23M712.97 147.31C711.87 150.27 712.68 155.57 713.02 158.2M712.29 147.41C711.75 150.5 711.68 152.9 711.44 158.79M712 159.17C713.92 160.08 710.47 162.34 708.69 162.72M712.07 159.89C711.5 161.32 710.57 163.39 711.46 162.38M708.41 162.52C705.93 163.23 699.97 161.92 693.76 162.95M708.39 161.84C704.1 161.33 698.76 162.02 692.77 162.04M692.83 162C691.21 161.17 690.1 163.02 690.36 157.8M692.45 163.17C691.15 164.18 690.77 161.76 687.75 158.79M689.56 160.04C689.74 157.06 690.78 154.73 689.69 147.27M690.35 159.05C689.42 156.56 689.44 152.99 690.11 147.76M690 147.83C691.19 146.08 691.51 145.37 692.5 143.92M688.02 146.96C688.06 148.08 691.39 145.99 691.21 146.47M692.83 145C692.83 145 692.83 145 692.83 145M692.83 145C692.83 145 692.83 145 692.83 145" fill="none" stroke="var(--ce-alert)" stroke-width="1" stroke-linecap="round" stroke-linejoin="round"/><text xml:space="preserve" x="701" y="156.2" text-anchor="middle" font-family='"Excalifont","Virgil","Segoe Print","Comic Sans MS",ui-rounded,cursive' font-size="10" fill="var(--ce-on-accent)">6</text><text xml:space="preserve" x="720" y="155.04" text-anchor="start" font-family='"Excalifont","Virgil","Segoe Print","Comic Sans MS",ui-rounded,cursive' font-size="12" fill="var(--ce-ink)">Destructive action</text><text xml:space="preserve" x="720" y="170.28" text-anchor="start" font-family='"Excalifont","Virgil","Segoe Print","Comic Sans MS",ui-rounded,cursive' font-size="9" fill="var(--ce-ink-muted)">a deny-listed command was attempted</text><path d="M690.18 179.27C746.23 178.53 802.91 178.84 903.71 178.85M689.8 179.06C746.36 178.75 802.52 178.64 904.07 179.08" fill="none" stroke="var(--ce-border)" stroke-width="1" stroke-linecap="round" stroke-linejoin="round"/><text xml:space="preserve" x="690" y="191.82" text-anchor="start" font-family='"Excalifont","Virgil","Segoe Print","Comic Sans MS",ui-rounded,cursive' font-size="8.5" fill="var(--ce-ink-muted)">blocked, denied and refused are successes;</text><text xml:space="preserve" x="690" y="203.82" text-anchor="start" font-family='"Excalifont","Virgil","Segoe Print","Comic Sans MS",ui-rounded,cursive' font-size="8.5" fill="var(--ce-ink-muted)">ok on a deny-listed command is the incident</text><path d="M427.07 233.78C503.13 230.53 580.85 230.03 632.93 233.63C649.46 233.33 655.92 240.1 654.62 253.01C655.87 267.78 654.5 287.29 652.78 331.37C655.7 345.92 649.69 351.75 634.83 348.3C571.89 347.79 510.92 350.9 429.21 349.35C412.06 348.62 409.61 343.4 405.48 332.34C408.45 313.07 405.42 298.34 405.51 254C408.93 238.58 416.94 230.64 429.74 232.17C427.67 232 427.67 232 427.67 232" fill="var(--ce-surface)" stroke="none"/><path d="M428.3 230.25C504.77 231.01 579.76 231.15 633.85 230.35M427.58 231.36C493.32 232.73 559.44 232.62 633.74 231.97M634.33 232C648.37 233.78 652.98 237.43 654.72 253.24M632.82 230.41C645.25 232.9 652.32 239.94 652.45 253.33M655.92 252.73C651.9 278.53 653.16 304.27 652.2 329.82M653.43 252.6C653.16 277.37 653.46 305.93 654.18 329.47M654 330.33C655.75 345 645.65 348.7 633.92 349.72M653.67 332.17C653.99 344.57 646.26 349.18 634.35 351.87M632.86 351.74C584.39 347.91 538.13 350.87 427.78 351.67M634 350.25C586.48 348.38 538.35 349.2 428.14 349.75M427.67 350C415.71 349.77 408.34 342.43 408.72 329.1M426.81 351.21C414.58 350.58 408 341.83 409.24 330M409.16 331.38C407.64 310.29 409.6 293.57 406.77 252M408.55 330.57C408.24 311.66 409.16 291.22 408.77 251.45M408 251.67C409.08 240 415.46 232.2 426.17 230.29M407.99 250.1C406.14 236.4 413.85 233.52 425.91 233.19M427.67 232C427.67 232 427.67 232 427.67 232M427.67 232C427.67 232 427.67 232 427.67 232" fill="none" stroke="var(--ce-ink)" stroke-width="1.3" stroke-linecap="round" stroke-linejoin="round"/><path d="M412.63 241.62C412.38 262.29 413.96 282.84 413.59 340.43M413.07 240.78C412.71 261.27 412.81 282.19 413.21 341.31" fill="none" stroke="var(--ce-warn)" stroke-width="4" stroke-linecap="round" stroke-linejoin="round"/><text xml:space="preserve" x="424" y="249.2" text-anchor="start" font-family='"Excalifont","Virgil","Segoe Print","Comic Sans MS",ui-rounded,cursive' font-size="10" fill="var(--ce-warn)">AT OBSERVE - THE LOOP TURNS AGAIN</text><text xml:space="preserve" x="424" y="263.74" text-anchor="start" font-family='"Excalifont","Virgil","Segoe Print","Comic Sans MS",ui-rounded,cursive' font-size="9.5" fill="var(--ce-ink-muted)">the iteration failures</text><path d="M423.84 269.48C491.05 270.26 558.14 269.96 638.41 270.46M424.2 270.19C480.02 270.49 536.26 270.73 637.84 270.04" fill="none" stroke="var(--ce-border)" stroke-width="1" stroke-linecap="round" stroke-linejoin="round"/><path d="M426.85 275.92C431.08 274.96 438.59 276.4 443.55 276.91C446.61 279.58 447.68 278.31 445.74 279.94C445.28 283.81 446.02 287.17 447.25 291.63C446.07 295.5 445.93 295.67 441.97 292.01C439.79 294.66 434.73 294.24 427.59 294.67C425.97 292.28 421.53 293.5 421.52 290.7C422.79 287.72 425.21 284.57 423.97 280.09C423.37 278.43 423.75 276.43 428.09 278.7C426.83 277 426.83 277 426.83 277" fill="var(--ce-warn)" stroke="none"/><path d="M425.25 277.85C434.04 278.44 437.03 277.22 442.41 275.92M427.64 276.23C433.06 277.11 437.62 276.86 443.5 277.58M443.17 277C443.47 278.59 446.16 277.95 446.79 279.66M443.72 277.91C447.33 276.28 447.21 279.35 447.77 277.74M445.56 279.3C445.33 282.74 445.64 286.07 445.47 291.69M446.54 280.39C446.62 283.08 446.32 286.86 446.1 291.25M446 291.17C447.06 292.42 446.39 293.24 442.81 293.58M447.1 292.66C445.67 291.51 445.34 295.55 443.53 292.34M443.72 294.97C438.78 294 433.25 294 426.35 293.63M442.96 294.27C439.58 294.09 434.58 293.49 426.92 293.82M426.83 294C425.02 293.62 422.8 293.35 422.13 290.6M425.64 292.39C422.86 296.07 422.13 291.75 423.79 290.21M424.8 290.92C423.78 289.45 423 286.58 424.32 278.95M423.63 291.32C423.92 288.16 424.46 285.59 424.19 279.84M424 279.83C422.72 278.61 425.52 275.94 425.08 277.69M425.96 281.2C424.83 277.97 426.71 277.58 426.94 277.33M426.83 277C426.83 277 426.83 277 426.83 277M426.83 277C426.83 277 426.83 277 426.83 277" fill="none" stroke="var(--ce-warn)" stroke-width="1" stroke-linecap="round" stroke-linejoin="round"/><text xml:space="preserve" x="435" y="288.2" text-anchor="middle" font-family='"Excalifont","Virgil","Segoe Print","Comic Sans MS",ui-rounded,cursive' font-size="10" fill="var(--ce-on-accent)">4</text><text xml:space="preserve" x="454" y="287.04" text-anchor="start" font-family='"Excalifont","Virgil","Segoe Print","Comic Sans MS",ui-rounded,cursive' font-size="12" fill="var(--ce-ink)">Doom loop</text><text xml:space="preserve" x="454" y="302.28" text-anchor="start" font-family='"Excalifont","Virgil","Segoe Print","Comic Sans MS",ui-rounded,cursive' font-size="9" fill="var(--ce-ink-muted)">identical (tool, args) across turns</text><path d="M425.61 310.29C431.86 310.45 441.1 312.56 442.34 312.18C445.21 310.43 447.48 310.33 445.04 316.08C446.41 315.01 447.19 318.82 445.85 323.77C447.88 326.35 445.89 329.61 440.62 328.9C438.63 329.17 432.53 328.68 425.37 328.83C425.67 326.01 426.59 324.78 425.71 324.8C423.29 321.84 423.71 318.46 423.3 312.64C423.16 310.72 426.08 308.99 427.44 310.81C426.83 311 426.83 311 426.83 311" fill="var(--ce-warn)" stroke="none"/><path d="M427.43 311.86C432.68 309.43 436.39 310.4 444.12 309.61M426.72 311.4C432.2 310.26 436.2 310.87 443.55 311.74M443.17 311C446.26 309.23 447.11 312.86 446.86 314.67M441.38 309.9C445.39 312.67 445.85 309.7 445.83 315.18M446.59 313.29C446.66 316.14 445.3 318.82 444.95 325.43M445.86 313.97C445.7 317.28 445.69 321.52 446.31 325.03M446 325.17C444.1 327.86 445.69 326.88 442.85 329.87M447.44 325.58C447.26 327.98 445.59 329.6 442.88 327.19M441.98 329.13C437.31 327.71 435.19 328.14 425.89 329.36M443.69 327.32C438.44 327.79 434.64 328.4 426.97 327.2M426.83 328C424.96 329.11 422.36 326.79 424.05 323.54M425.36 328.13C426.7 328.49 424.32 325.09 424.47 325.56M424.45 326.06C424.39 320.56 423 318.26 423.78 314.35M423.77 324.65C424.38 321.27 423.59 316.01 424.22 313.49M424 313.83C423.23 312.79 426.86 312.13 427.28 309.62M425.94 311.95C424.22 312.8 424.08 309.91 427.52 312.48M426.83 311C426.83 311 426.83 311 426.83 311M426.83 311C426.83 311 426.83 311 426.83 311" fill="none" stroke="var(--ce-warn)" stroke-width="1" stroke-linecap="round" stroke-linejoin="round"/><text xml:space="preserve" x="435" y="322.2" text-anchor="middle" font-family='"Excalifont","Virgil","Segoe Print","Comic Sans MS",ui-rounded,cursive' font-size="10" fill="var(--ce-on-accent)">2</text><text xml:space="preserve" x="454" y="321.04" text-anchor="start" font-family='"Excalifont","Virgil","Segoe Print","Comic Sans MS",ui-rounded,cursive' font-size="12" fill="var(--ce-ink)">Context anxiety</text><text xml:space="preserve" x="454" y="336.28" text-anchor="start" font-family='"Excalifont","Virgil","Segoe Print","Comic Sans MS",ui-rounded,cursive' font-size="9" fill="var(--ce-ink-muted)">quality falls with turn index</text><path d="M695.6 231.63C745.57 232.41 803.09 230.81 898.11 230.06C912.19 233.47 921.29 240.16 918.33 250.85C917.73 278.83 919.17 306.01 922.48 329.77C918.5 344.79 914.22 351.54 901.63 348.59C849.76 352.56 797.6 351.95 694.27 351.08C680.98 347.74 676.45 343.64 674.69 330.07C673.73 305.81 676.13 275.42 671.59 252.22C672.95 240.82 678.83 233.74 693.62 229.91C693.67 232 693.67 232 693.67 232" fill="var(--ce-surface)" stroke="none"/><path d="M693.14 232.95C742.69 230.37 791.67 230.26 899.68 233.7M694.31 231.92C742.56 230.07 790.3 229.88 900.81 231.2M900.33 232C913.44 230.88 918.06 240.37 920.92 253.5M900.2 232.9C911.84 231.46 918.48 237.25 917.89 251.86M918.88 250.71C919.52 278.24 918.15 305.38 921.23 330.34M920.57 251.15C919.61 282.24 920.12 310.69 920.94 329.7M920 330.33C919.15 341.7 913.39 348.52 900.05 350.16M921.78 329.67C918.26 342.23 914.23 351.66 899.4 350.04M900.7 351.39C853.51 348.23 808.97 349.17 692.12 349.82M899.93 350.01C852.31 348.68 806.07 348.87 693.87 350.24M693.67 350C680.5 348.59 675.93 342.62 675.98 331.64M691.92 351.87C681.55 348.92 671.91 345.41 675.15 332.06M674.19 329.91C675.47 308.11 671.95 284.09 672.65 251.06M673.83 330.24C674.38 305.05 674.63 280.18 674.43 252.44M674 251.67C673.74 239.58 679.81 231.31 692.31 232.54M675.92 250.53C673.61 240.25 681.67 233.84 694.93 230.03M693.67 232C693.67 232 693.67 232 693.67 232M693.67 232C693.67 232 693.67 232 693.67 232" fill="none" stroke="var(--ce-ink)" stroke-width="1.3" stroke-linecap="round" stroke-linejoin="round"/><path d="M677.85 241.04C678.35 267.97 679.11 294.63 679.48 340.29M679.57 241.16C679.42 273.14 679.22 304.13 678.73 340.79" fill="none" stroke="var(--ce-accent)" stroke-width="4" stroke-linecap="round" stroke-linejoin="round"/><text xml:space="preserve" x="690" y="249.2" text-anchor="start" font-family='"Excalifont","Virgil","Segoe Print","Comic Sans MS",ui-rounded,cursive' font-size="10" fill="var(--ce-accent)">ACROSS TURNS - THE WHOLE LOOP</text><text xml:space="preserve" x="690" y="263.74" text-anchor="start" font-family='"Excalifont","Virgil","Segoe Print","Comic Sans MS",ui-rounded,cursive' font-size="9.5" fill="var(--ce-ink-muted)">the consistency failure</text><path d="M689.5 270.28C770.57 270.08 850.74 269.7 904.36 270.4M689.89 269.83C770.59 270.21 850.94 269.9 904.16 269.82" fill="none" stroke="var(--ce-border)" stroke-width="1" stroke-linecap="round" stroke-linejoin="round"/><path d="M690.93 278.19C694.97 276.61 699.19 277.03 708.79 277.87C709.34 274.53 713.04 278.38 709.45 277.79C711.9 283.02 711.29 283.66 712.4 290.72C714.07 294.36 710.47 295.46 708.78 292.3C702.1 294.04 694.79 294.44 692.73 292.01C689.69 291.4 688.38 293.74 690.73 293.64C691.19 287.48 690.78 285.2 690.01 279.08C692.59 275.48 690.84 279.53 691.97 276.44C692.83 277 692.83 277 692.83 277" fill="var(--ce-accent)" stroke="none"/><path d="M693.45 277.07C694.78 277.64 700.95 276.19 708.26 275.72M692.68 276.75C697.08 276.43 701.46 277.75 708.86 276.88M709.17 277C712.54 275.68 711.24 276.9 712.99 279.92M711.1 276.4C709.33 274.85 713.38 276.67 713.22 280.87M712.1 280.42C712.2 282.49 711.02 286.53 710.91 291.98M712.05 279.58C712.45 283.43 712.26 288.15 712.52 291.38M712 291.17C710.46 293.12 710.13 293.06 708.94 294.03M711.21 290.16C709.94 293.78 713.31 293.43 708.58 295.11M708.14 294.65C702.45 294.24 699.84 292.39 694.1 295.19M708.89 294.05C705.14 293.95 699.97 294.42 692.67 294.26M692.83 294C689.81 292.44 690.39 293.54 689.38 293.14M694.75 293.04C689.84 294.41 690.64 295.34 689.69 292.27M690.24 290.08C689.03 287.42 689.68 284.14 690.26 280.68M690.36 291.13C689.97 286.98 690.13 283.32 689.99 280.4M690 279.83C691.38 278.19 689.87 275.05 691.22 275.94M689.9 281.63C687.7 277.22 689.92 277.9 691.37 278.77M692.83 277C692.83 277 692.83 277 692.83 277M692.83 277C692.83 277 692.83 277 692.83 277" fill="none" stroke="var(--ce-accent)" stroke-width="1" stroke-linecap="round" stroke-linejoin="round"/><text xml:space="preserve" x="701" y="288.2" text-anchor="middle" font-family='"Excalifont","Virgil","Segoe Print","Comic Sans MS",ui-rounded,cursive' font-size="10" fill="var(--ce-on-accent)">5</text><text xml:space="preserve" x="720" y="287.04" text-anchor="start" font-family='"Excalifont","Virgil","Segoe Print","Comic Sans MS",ui-rounded,cursive' font-size="12" fill="var(--ce-ink)">Silent drift</text><text xml:space="preserve" x="720" y="302.28" text-anchor="start" font-family='"Excalifont","Virgil","Segoe Print","Comic Sans MS",ui-rounded,cursive' font-size="9" fill="var(--ce-ink-muted)">the same finding, run after run</text><path d="M689.85 311.03C766.21 310.81 841.3 310 904.26 310.49M690.18 310.77C733.59 310.57 777.31 310.74 903.92 311.01" fill="none" stroke="var(--ce-border)" stroke-width="1" stroke-linecap="round" stroke-linejoin="round"/><text xml:space="preserve" x="690" y="323.82" text-anchor="start" font-family='"Excalifont","Virgil","Segoe Print","Comic Sans MS",ui-rounded,cursive' font-size="8.5" fill="var(--ce-ink-muted)">read the assembled prompt for that run:</text><text xml:space="preserve" x="690" y="335.82" text-anchor="start" font-family='"Excalifont","Virgil","Segoe Print","Comic Sans MS",ui-rounded,cursive' font-size="8.5" fill="var(--ce-ink-muted)">a rule never in it is a missing memory file</text><text xml:space="preserve" x="40" y="375.2" text-anchor="start" font-family='"Excalifont","Virgil","Segoe Print","Comic Sans MS",ui-rounded,cursive' font-size="10" fill="var(--ce-ink-subtle)">THE ADDRESS OF A FAILURE IS NOT ALWAYS THE ADDRESS OF ITS FIX</text><path d="M63.93 382.95C352.23 380.16 642.41 381.03 896.71 381.6C912.67 383.62 920.65 391.67 921.25 408.22C918.95 443.26 918 482.35 920.97 531.83C920.5 550.21 911.32 559.33 898.1 556.88C719.15 557.81 542.3 557.94 63.85 557.18C46.13 560.06 38.1 550.43 38.71 531.48C37.98 499.02 40.61 460.14 37.66 404.78C42.17 389.31 47.37 381.64 61.84 382.84C64 382 64 382 64 382" fill="var(--ce-surface)" stroke="none"/><path d="M63.24 382.04C311.16 382.04 557.64 381.87 895.63 382.67M63.82 382.22C352.03 383.34 639.61 383.23 895.9 382.1M896 382C911.07 381.97 921.13 390.76 921.12 404.09M897.25 381.39C910.99 380.03 918.65 390.61 921.93 404.72M919.84 407.02C921.22 448.88 921.21 494.01 920.26 534.52M919.71 406.04C920.13 434.36 920.85 461.62 919.7 533.59M920 534C920.55 548.96 913.68 556.33 895.85 558.61M919.89 534.83C921.12 551.05 910.17 557.54 894.12 556.22M895.39 558.47C718.69 556.29 541.77 555.81 64.16 558.68M895.78 557.9C706.43 557.03 516.2 557.63 63.97 558.32M64 558C46.74 559.41 39.52 549.37 39.23 533.84M65.37 556.52C49.97 559.87 40.42 550.95 41.05 533.19M39.21 532.1C41.19 493.14 40.18 449.36 38.53 404.46M39.12 533.58C40.96 482.46 40.53 431.51 40.08 405.76M40 406C38.4 390.6 49.6 380.43 62.78 380.79M39.86 405.29C41.08 390.94 46.32 384.16 63.69 381.47M64 382C64 382 64 382 64 382M64 382C64 382 64 382 64 382" fill="none" stroke="var(--ce-ink)" stroke-width="1.3" stroke-linecap="round" stroke-linejoin="round"/><text xml:space="preserve" x="56" y="399.28" text-anchor="start" font-family='"Excalifont","Virgil","Segoe Print","Comic Sans MS",ui-rounded,cursive' font-size="9" fill="var(--ce-ink-subtle)">FAILURE MODE</text><text xml:space="preserve" x="262" y="399.28" text-anchor="start" font-family='"Excalifont","Virgil","Segoe Print","Comic Sans MS",ui-rounded,cursive' font-size="9" fill="var(--ce-ink-subtle)">SYMPTOM SHOWS AT</text><text xml:space="preserve" x="420" y="399.28" text-anchor="start" font-family='"Excalifont","Virgil","Segoe Print","Comic Sans MS",ui-rounded,cursive' font-size="9" fill="var(--ce-ink-subtle)">THE FIX INSTALLS AT</text><path d="M56.09 407.02C258.69 407.33 461 407.61 904.14 407.16M56.05 407C300.79 406.11 545.49 406.2 903.98 407.05" fill="none" stroke="var(--ce-border)" stroke-width="1" stroke-linecap="round" stroke-linejoin="round"/><path d="M59.04 413.3C61.62 415.12 65.41 414.6 72.32 415.65C75.33 411.67 76.41 415.39 76.37 417.66C76.5 421.05 74.65 424.01 75.57 426.06C74.87 429.28 73.07 431.24 73.75 428.59C66.61 429.63 64.76 430.73 57.8 429.64C58.54 431.72 55.22 430.03 54.74 427.54C56.48 426.4 56.23 422.31 56.05 417.78C56.61 414.67 57.87 414.43 60.89 416.37C58.67 414 58.67 414 58.67 414" fill="var(--ce-primary)" stroke="none"/><path d="M58.27 413.36C61.56 413.85 67.03 415.27 72.38 412.68M59.14 414.24C63.65 414.03 70.35 413.68 73.94 414.72M73.33 414C75.67 413.77 74.32 416.79 77.19 417.01M72.65 415.89C73.98 415.02 77.54 415.53 76.66 416.23M76.6 416.14C77 418.93 76.62 423.39 76.59 428.37M75.59 416.72C75.42 421.45 76.43 425.7 75.83 427.65M76 427.33C75.85 429.88 75.93 428.88 73.23 430.47M77.32 427.82C76.81 427.49 74.75 431.91 71.8 429.28M73.93 430.29C68.14 430.44 65.48 430.04 58.43 429.54M73.03 429.85C69.32 429.84 66 429.74 58.3 430.63M58.67 430C58.55 431.26 57.98 429.78 56.64 427.84M59.7 429.7C56.75 428.75 54.56 430.37 55.6 425.9M55.71 427.66C56.75 424.03 56.57 420.57 56.18 416.96M55.96 427.13C56.02 425.47 55.82 423.14 55.81 416.66M56 416.67C56.04 414.71 58.16 415.17 57.19 415.2M57.83 414.89C55.17 413.42 57.68 415.23 60.23 412.61M58.67 414C58.67 414 58.67 414 58.67 414M58.67 414C58.67 414 58.67 414 58.67 414" fill="none" stroke="var(--ce-primary)" stroke-width="1" stroke-linecap="round" stroke-linejoin="round"/><text xml:space="preserve" x="66" y="424.74" text-anchor="middle" font-family='"Excalifont","Virgil","Segoe Print","Comic Sans MS",ui-rounded,cursive' font-size="9.5" fill="var(--ce-on-accent)">1</text><text xml:space="preserve" x="84" y="423.58" text-anchor="start" font-family='"Excalifont","Virgil","Segoe Print","Comic Sans MS",ui-rounded,cursive' font-size="11.5" fill="var(--ce-ink)">Victory declaration</text><text xml:space="preserve" x="262" y="423.12" text-anchor="start" font-family='"Excalifont","Virgil","Segoe Print","Comic Sans MS",ui-rounded,cursive' font-size="11" fill="var(--ce-primary)">REASON</text><path d="M390.32 420.23C397.65 421.1 401.56 421.66 410.72 422.64M391.56 420.78C397.16 421.9 402.97 420.61 410.8 420.26" fill="none" stroke="var(--ce-ink-subtle)" stroke-width="1" stroke-linecap="round" stroke-linejoin="round"/><path d="M399.96 416.51 L410 421 L399.96 425.49" fill="none" stroke="var(--ce-ink-subtle)" stroke-width="1" stroke-linecap="round" stroke-linejoin="round"/><text xml:space="preserve" x="420" y="423.12" text-anchor="start" font-family='"Excalifont","Virgil","Segoe Print","Comic Sans MS",ui-rounded,cursive' font-size="11" fill="var(--ce-ink)">at the loop exit - the gate runs before stop 1 can fire</text><path d="M57.36 439.71C63.11 439.22 65.86 437.69 72.59 439.47C75.82 436.14 76.11 439.02 75.31 442.26C75.26 443.54 76.23 448.21 74.98 451.59C74.99 451.16 75.59 455.15 71.72 454.32C69.88 454.32 65.75 453.42 58.61 455.76C55.49 455.31 57.61 452.54 55.83 451.7C55.86 448.76 56.94 443.92 56.49 441.13C53.7 441.3 58.78 436.26 59.91 440.12C58.67 438 58.67 438 58.67 438" fill="var(--ce-warn)" stroke="none"/><path d="M58.28 438.84C64.12 436.9 66.17 436.87 73.22 437.73M58.63 438.34C62.49 438.35 66.97 438.42 74.01 438.2M73.33 438C75.86 436.74 75.74 438.15 77.28 440.51M75.14 438.88C75.67 438.01 75.5 438.64 76.05 438.49M77 440.14C76.63 443.15 74.95 445.62 75.86 452.01M75.71 441.19C76.49 444.13 76.31 447.96 75.61 450.8M76 451.33C77.42 452.05 74.88 454.33 73.3 455.9M75.84 452.2C74.6 452.89 72.83 455.99 73.13 454.56M73.05 453.03C67.62 453.88 63.69 454.07 57.8 454.41M74.02 453.31C67.79 453.45 63.15 454.23 59.11 453.8M58.67 454C56.46 453.49 55.32 452.95 57.52 450.25M59.29 454.31C57.91 452.7 57.84 451.07 56.62 451.91M56.29 451.13C56.54 447.14 55.5 444.5 56.48 439.75M55.62 451.78C55.6 448.22 55.65 444.76 56.38 440.16M56 440.67C54.81 436.97 56.17 438.45 58.48 438.08M57.8 440.01C56.56 440.97 56.04 439.02 58.79 438.34M58.67 438C58.67 438 58.67 438 58.67 438M58.67 438C58.67 438 58.67 438 58.67 438" fill="none" stroke="var(--ce-warn)" stroke-width="1" stroke-linecap="round" stroke-linejoin="round"/><text xml:space="preserve" x="66" y="448.74" text-anchor="middle" font-family='"Excalifont","Virgil","Segoe Print","Comic Sans MS",ui-rounded,cursive' font-size="9.5" fill="var(--ce-on-accent)">2</text><text xml:space="preserve" x="84" y="447.58" text-anchor="start" font-family='"Excalifont","Virgil","Segoe Print","Comic Sans MS",ui-rounded,cursive' font-size="11.5" fill="var(--ce-ink)">Context anxiety</text><text xml:space="preserve" x="262" y="447.12" text-anchor="start" font-family='"Excalifont","Virgil","Segoe Print","Comic Sans MS",ui-rounded,cursive' font-size="11" fill="var(--ce-warn)">no single stage</text><path d="M390.33 446.04C397.19 444.33 400.5 446.7 411.74 444.32M392.73 444.9C395.75 444.09 400.63 445.12 410.89 445.43" fill="none" stroke="var(--ce-ink-subtle)" stroke-width="1" stroke-linecap="round" stroke-linejoin="round"/><path d="M399.96 440.51 L410 445 L399.96 449.49" fill="none" stroke="var(--ce-ink-subtle)" stroke-width="1" stroke-linecap="round" stroke-linejoin="round"/><text xml:space="preserve" x="420" y="447.12" text-anchor="start" font-family='"Excalifont","Virgil","Segoe Print","Comic Sans MS",ui-rounded,cursive' font-size="11" fill="var(--ce-ink)">between turns - compaction on the accumulated window</text><path d="M59.5 462.31C64.6 463.31 66.31 460.78 72.87 463.28C76.31 460.6 75.82 462.65 74.26 466.87C76.9 468.8 75.15 472.41 77.17 474.34C75.11 478.24 72.92 479.05 74.89 480.06C69.34 479.01 66.74 479.92 59.43 478.07C57.63 478.9 54.8 475.05 56.91 475.85C55.12 473.24 54.77 469.81 56.94 464.48C55.98 462.74 54.48 463.29 58.93 463.88C58.67 462 58.67 462 58.67 462" fill="var(--ce-primary)" stroke="none"/><path d="M58.29 461.39C63.74 463.19 68.24 461.72 74.06 462.78M58.12 462.44C61.33 462.35 65.06 461.37 72.61 461.68M73.33 462C76.05 463.7 77.16 463.5 77.37 464.02M73.62 461.88C77.36 460.99 78.05 461.75 75.44 465.35M75.27 464.13C76.5 467.36 75.64 469.98 75.13 475.64M75.82 464.58C76.25 467.87 75.96 470.22 76.45 475.02M76 475.33C74.99 478.22 73.84 479.78 73.36 477.34M74.35 476.59C76.98 478.29 75.51 480.07 74.46 479.84M72.17 478.7C67.1 477.33 61.91 478.11 60.1 479.28M73.54 478.23C70.65 478.52 67.63 478.73 58.44 478.44M58.67 478C58.36 479.71 56.67 476.11 54.41 476.65M58.88 478.91C59.07 476.64 56.52 476.37 57.64 473.32M56.87 474.6C56.56 472.4 56.79 468.42 56.78 464.66M56.34 475.37C56.49 473.1 55.71 470.64 55.89 464.73M56 464.67C57.57 463.24 58.17 461.74 59.77 460.97M57.78 465.13C57.95 463.91 59 462.82 57.36 464.07M58.67 462C58.67 462 58.67 462 58.67 462M58.67 462C58.67 462 58.67 462 58.67 462" fill="none" stroke="var(--ce-primary)" stroke-width="1" stroke-linecap="round" stroke-linejoin="round"/><text xml:space="preserve" x="66" y="472.74" text-anchor="middle" font-family='"Excalifont","Virgil","Segoe Print","Comic Sans MS",ui-rounded,cursive' font-size="9.5" fill="var(--ce-on-accent)">3</text><text xml:space="preserve" x="84" y="471.58" text-anchor="start" font-family='"Excalifont","Virgil","Segoe Print","Comic Sans MS",ui-rounded,cursive' font-size="11.5" fill="var(--ce-ink)">One-shotting</text><text xml:space="preserve" x="262" y="471.12" text-anchor="start" font-family='"Excalifont","Virgil","Segoe Print","Comic Sans MS",ui-rounded,cursive' font-size="11" fill="var(--ce-primary)">REASON</text><path d="M390.35 468.26C396.73 467.15 399.45 467.75 409.17 469.61M392.11 469.03C397.93 468.09 403.68 469.64 409.18 468.79" fill="none" stroke="var(--ce-ink-subtle)" stroke-width="1" stroke-linecap="round" stroke-linejoin="round"/><path d="M399.96 464.51 L410 469 L399.96 473.49" fill="none" stroke="var(--ce-ink-subtle)" stroke-width="1" stroke-linecap="round" stroke-linejoin="round"/><text xml:space="preserve" x="420" y="471.12" text-anchor="start" font-family='"Excalifont","Virgil","Segoe Print","Comic Sans MS",ui-rounded,cursive' font-size="11" fill="var(--ce-ink)">before the run - the plan is written before any code exists</text><path d="M57.82 484.9C62.28 487.41 66.76 487.68 73.14 487.09C76.8 485.07 75.52 486.28 78.4 486.27C75.66 494.07 76.74 496.62 76.59 499.86C75.24 500.11 75.44 502.95 72.86 500.59C68.81 503.7 67.73 502.61 60.24 500.38C54.57 502.5 57.19 502.75 57.99 500.01C57.16 497.72 55.37 492.91 57.38 487.83C58.27 489.38 55.39 485.12 57.95 487.63C58.67 486 58.67 486 58.67 486" fill="var(--ce-warn)" stroke="none"/><path d="M58.3 486.87C63.37 486.24 67.38 486.24 71.96 484.89M59.07 486.54C63.11 486.34 67.55 485.79 72.69 486.63M73.33 486C76.24 486.67 74.58 488.86 77.47 487.52M72.11 484.87C74.45 483.98 76.01 484.87 74.83 487.61M75.67 488.13C76.13 491.58 76.1 494.34 76.53 499.28M75.94 489.05C76.01 490.54 75.6 493.54 76.23 499.24M76 499.33C76.56 500.39 76.8 501.24 73.42 502.77M76.86 500.97C74.77 499.09 73.59 504.15 71.2 500.52M74.23 501.44C66.59 500.78 63.05 502.14 59.47 501.22M73.06 501.69C69.11 502.13 64.79 501.76 59.24 501.61M58.67 502C56.26 501.94 54.02 499.28 55.29 499.05M58.47 503.52C55.62 500.59 55.2 501.67 54.06 499.34M55.32 500.21C56.34 495.51 55.72 492.35 54.94 489.58M56 498.97C56.08 495.85 55.54 493.33 56.46 488.24M56 488.67C56.34 485.51 56.18 485.02 57.07 487.85M57.75 490.25C54.73 486.86 57.36 486.61 60.52 485.19M58.67 486C58.67 486 58.67 486 58.67 486M58.67 486C58.67 486 58.67 486 58.67 486" fill="none" stroke="var(--ce-warn)" stroke-width="1" stroke-linecap="round" stroke-linejoin="round"/><text xml:space="preserve" x="66" y="496.74" text-anchor="middle" font-family='"Excalifont","Virgil","Segoe Print","Comic Sans MS",ui-rounded,cursive' font-size="9.5" fill="var(--ce-on-accent)">4</text><text xml:space="preserve" x="84" y="495.58" text-anchor="start" font-family='"Excalifont","Virgil","Segoe Print","Comic Sans MS",ui-rounded,cursive' font-size="11.5" fill="var(--ce-ink)">Doom loop</text><text xml:space="preserve" x="262" y="495.12" text-anchor="start" font-family='"Excalifont","Virgil","Segoe Print","Comic Sans MS",ui-rounded,cursive' font-size="11" fill="var(--ce-warn)">OBSERVE</text><path d="M390.36 494.08C396.27 493.97 401.99 492.79 410.2 491.29M391.48 493.15C396.51 492.48 401.34 492.75 409.26 492.15" fill="none" stroke="var(--ce-ink-subtle)" stroke-width="1" stroke-linecap="round" stroke-linejoin="round"/><path d="M399.96 488.51 L410 493 L399.96 497.49" fill="none" stroke="var(--ce-ink-subtle)" stroke-width="1" stroke-linecap="round" stroke-linejoin="round"/><text xml:space="preserve" x="420" y="495.12" text-anchor="start" font-family='"Excalifont","Virgil","Segoe Print","Comic Sans MS",ui-rounded,cursive' font-size="11" fill="var(--ce-ink)">at the turn-end check - stop 4, a window of 3 identical calls</text><path d="M59.96 511.31C63.78 511.5 67.21 510.77 73.41 510.91C77.29 509.54 75.23 509.91 77.35 510.87C77.2 516.56 75.55 520.82 76.01 522.61C75.36 527.19 72.77 526.85 70.83 526.33C72.08 524.43 68.71 525.15 57.25 526.5C56.72 526.09 54.38 525.26 53.87 524.17C56.53 522.21 56.08 518.8 55.06 513.96C55.36 510.81 56.29 512.15 56.97 511.38C58.67 510 58.67 510 58.67 510" fill="var(--ce-accent)" stroke="none"/><path d="M58.31 509.42C63 509.6 69.46 511.09 72.8 509.94M58.56 510.65C61.96 510.34 65.64 510.21 72.76 510.12M73.33 510C76.43 509.63 76 510.22 77.56 511.02M74.59 511.87C76.14 511.56 73.96 512.58 74.22 514.47M76.07 512.12C75.76 515.8 76.56 518.7 75.8 522.91M76.06 512.45C76 516.42 76.55 520.07 76 523.46M76 523.33C74.12 526.56 75.76 526.69 73.48 524.21M75.38 521.36C77.15 524.49 76.27 528.23 72.53 525.8M73.35 527.11C69.01 527.16 67.13 526.18 58.84 526.1M74.05 526.61C67.58 525.73 63.41 526.26 58.58 526.24M58.67 526C58.17 524.16 55.37 526.44 56.18 521.45M58.06 524.13C56.78 524.53 53.89 526.97 55.08 525.35M55.9 523.68C56.36 520.76 57.01 516.28 55.24 512.36M55.66 523.62C55.9 520.73 55.61 519.21 55.96 512.81M56 512.67C55.1 511.77 58.19 508.31 58.36 510.74M57.72 511.37C56.12 509.81 55.72 510.41 59.09 510.92M58.67 510C58.67 510 58.67 510 58.67 510M58.67 510C58.67 510 58.67 510 58.67 510" fill="none" stroke="var(--ce-accent)" stroke-width="1" stroke-linecap="round" stroke-linejoin="round"/><text xml:space="preserve" x="66" y="520.74" text-anchor="middle" font-family='"Excalifont","Virgil","Segoe Print","Comic Sans MS",ui-rounded,cursive' font-size="9.5" fill="var(--ce-on-accent)">5</text><text xml:space="preserve" x="84" y="519.58" text-anchor="start" font-family='"Excalifont","Virgil","Segoe Print","Comic Sans MS",ui-rounded,cursive' font-size="11.5" fill="var(--ce-ink)">Silent drift</text><text xml:space="preserve" x="262" y="519.12" text-anchor="start" font-family='"Excalifont","Virgil","Segoe Print","Comic Sans MS",ui-rounded,cursive' font-size="11" fill="var(--ce-accent)">every turn</text><path d="M390.38 516.3C395.81 516.8 400.94 517.44 411.23 516.58M392.65 517.28C398.69 516.48 406.2 517.27 409.35 517.32" fill="none" stroke="var(--ce-ink-subtle)" stroke-width="1" stroke-linecap="round" stroke-linejoin="round"/><path d="M399.96 512.51 L410 517 L399.96 521.49" fill="none" stroke="var(--ce-ink-subtle)" stroke-width="1" stroke-linecap="round" stroke-linejoin="round"/><text xml:space="preserve" x="420" y="519.12" text-anchor="start" font-family='"Excalifont","Virgil","Segoe Print","Comic Sans MS",ui-rounded,cursive' font-size="11" fill="var(--ce-ink)">at session start when memory is injected, and again pre-tool</text><path d="M58.28 533.91C65.27 535.6 67.66 533.86 73.69 534.72C72.58 534 74.94 533.54 76.29 535.48C75.96 541.82 77.13 545.02 75.42 548.14C75.48 549.06 75.3 550.75 74 552.06C68.61 549.12 63.83 551.65 58.06 548.82C58.86 549.68 56.77 547.77 54.96 548.32C55.8 544.56 56.69 540.41 55.5 537.31C57.64 537.45 57.19 533.97 61.2 535.14C58.67 534 58.67 534 58.67 534" fill="var(--ce-alert)" stroke="none"/><path d="M58.32 534.9C62.62 532.65 68.6 532.68 73.64 534.99M58.05 533.28C63.73 534.66 68.13 533.49 72.83 533.6M73.33 534C76.62 532.6 77.42 535.58 77.65 538.53M73.08 534.86C73.23 534.55 76.51 535.7 78.21 536.73M76.47 536.12C75.62 540.02 75.12 540.93 75.07 546.55M76.17 536.91C75.76 540.16 76.2 543.39 75.78 547.68M76 547.33C75.69 548.73 74.71 548.14 73.54 549.64M77.89 545.74C74.94 549.89 74.35 547.71 73.86 551.08M72.47 549.85C71.42 550.61 65.34 550.21 58.21 550.97M73.57 550.07C70.44 550.81 66.42 550.75 59.38 549.41M58.67 550C56.07 550.39 56.72 549.61 57.07 547.85M57.65 548.74C57.94 548.47 57.17 547.67 56.1 546.76M56.48 547.16C56.15 543.88 55.94 540.21 55.54 537.28M56.39 547.21C55.48 544.54 55.44 540.83 56.53 536.31M56 536.67C57.87 534.04 56.19 535.59 59.65 533.62M57.69 536.49C57.51 532.75 58.68 534.2 57.65 532.05M58.67 534C58.67 534 58.67 534 58.67 534M58.67 534C58.67 534 58.67 534 58.67 534" fill="none" stroke="var(--ce-alert)" stroke-width="1" stroke-linecap="round" stroke-linejoin="round"/><text xml:space="preserve" x="66" y="544.74" text-anchor="middle" font-family='"Excalifont","Virgil","Segoe Print","Comic Sans MS",ui-rounded,cursive' font-size="9.5" fill="var(--ce-on-accent)">6</text><text xml:space="preserve" x="84" y="543.58" text-anchor="start" font-family='"Excalifont","Virgil","Segoe Print","Comic Sans MS",ui-rounded,cursive' font-size="11.5" fill="var(--ce-ink)">Destructive action</text><text xml:space="preserve" x="262" y="543.12" text-anchor="start" font-family='"Excalifont","Virgil","Segoe Print","Comic Sans MS",ui-rounded,cursive' font-size="11" fill="var(--ce-alert)">ACT</text><path d="M390.39 542.12C395.35 540.02 403.48 542.48 408.66 541.87M392.03 541.4C397.27 540.48 402.06 541.78 409.44 540.68" fill="none" stroke="var(--ce-ink-subtle)" stroke-width="1" stroke-linecap="round" stroke-linejoin="round"/><path d="M399.96 536.51 L410 541 L399.96 545.49" fill="none" stroke="var(--ce-ink-subtle)" stroke-width="1" stroke-linecap="round" stroke-linejoin="round"/><text xml:space="preserve" x="420" y="543.12" text-anchor="start" font-family='"Excalifont","Virgil","Segoe Print","Comic Sans MS",ui-rounded,cursive' font-size="11" fill="var(--ce-ink)">before the call - the only mode whose fix must run first</text><text xml:space="preserve" x="40" y="584.58" text-anchor="start" font-family='"Excalifont","Virgil","Segoe Print","Comic Sans MS",ui-rounded,cursive' font-size="11.5" fill="var(--ce-ink)">Instrument at the stage where the symptom shows; install the fix at the stage that controls it.</text><text xml:space="preserve" x="40" y="604.12" text-anchor="start" font-family='"Excalifont","Virgil","Segoe Print","Comic Sans MS",ui-rounded,cursive' font-size="11" fill="var(--ce-ink-muted)">Five of the six are performance failures; destructive action alone is a safety failure, because there is no after.</text><text xml:space="preserve" x="40" y="622.28" text-anchor="start" font-family='"Excalifont","Virgil","Segoe Print","Comic Sans MS",ui-rounded,cursive' font-size="9" fill="var(--ce-ink-subtle)">Worked example (section 3): with stop 4 a doom loop ends at turn 6 for about 84,000 input tokens; without it, the 40-turn cap costs about 3.28 million - a factor of 39.</text>
</svg>
