<?xml version="1.0" encoding="UTF-8"?>
<svg xmlns="http://www.w3.org/2000/svg" viewBox="0 0 960 634" role="img" aria-labelledby="t d">
  <title id="t">Tool dispatch as validate-then-execute, with the three kinds of wrongness each gate catches</title>
  <desc id="d">A hand-drawn figure in two tiers. The top tier is the dispatch flow. A schema card holds the bash contract: properties command string, required command, additionalProperties false. It feeds down into a VALIDATE box. On the left a MODEL box emits a tool call, drawn as a tool_use message carrying a name and an input, which arrives at VALIDATE where the input is checked against the schema. A green arrow marked valid leads to an EXECUTE box that runs the tool and gets a result; a red arrow marked invalid leads to an ERROR box where nothing is run and the problem is handed back. Both feed a return path that carries the outcome to the model as the next observation. Beside the flow, a panel shows one exchange on the wire, taken from section 2: an assistant turn of type tool_use with id toolu_01A, name bash and an input command of pytest -q tests/test_parser.py, and the harness reply of type tool_result with the same tool_use_id, is_error false, and content reading 2 failed, 11 passed in 0.44 seconds, under a note that the id is the only link between a request and its answer. The lower tier lays out section 7 three kinds of wrongness as three cards. One, schema-invalid: the call is cmd ls, caught by the harness validator before anything is executed, using schema.py, a 66-line JSON-Schema subset; the loop reads back error: invalid input, missing required property command, unexpected property cmd, and the model patches the call and retries. Two, schema-valid but wrong: the call is command cat /tmp/nope, caught by the tool itself at run time with the exit status surfaced rather than swallowed, and all 4 dispatch branches return a string, so the loop reads back exit 1, cat: /tmp/nope: No such file or directory, and the model reads the code and fixes the path. Three, schema-valid and dangerous: the call is command rm -rf /, refused by a deny-list before the runner sees it, 12 patterns shipped of which 4 other spellings still pass; the loop reads back blocked: command matches a deny-list rule, and the sandbox of post 14 is what actually holds. Captions record that a tool is a contract written in tokens, that validating the call turns a bad call into a correctable error, and that skipping validation turns the same call into a crash the loop can neither see nor fix.</desc>

  <style><![CDATA[
    :root{--ce-bg:#FAFAF7;--ce-surface:#FFFFFF;--ce-ink:#1A1A1A;--ce-ink-muted:#5C5C5C;--ce-ink-subtle:#9A9A9A;--ce-border:#D9D9D4;--ce-primary:#5B7FBF;--ce-accent:#D98E5F;--ce-success:#5C9E78;--ce-warn:#B8895A;--ce-alert:#C66B5E;--ce-neutral-1:#EAEAE4;--ce-neutral-2:#CFCFC8;--ce-neutral-3:#8E8E88;--ce-on-fill:#FFFDF9;--ce-on-accent:#1A1A1A;}
    @media (prefers-color-scheme:dark){:root{--ce-bg:#0E0F12;--ce-surface:#16181C;--ce-ink:#F2F2EE;--ce-ink-muted:#B4B4AE;--ce-ink-subtle:#6E6E68;--ce-border:#2A2D33;--ce-primary:#8BA8E0;--ce-accent:#E8B088;--ce-success:#7FBF9B;--ce-warn:#D4B58A;--ce-alert:#D88880;--ce-neutral-1:#1F2229;--ce-neutral-2:#2C3038;--ce-neutral-3:#6E6E68;--ce-on-fill:#14161A;--ce-on-accent:#1A1A1A;}}
    .bg{fill:var(--ce-bg);}
    text{dominant-baseline:auto;}
  ]]></style>

  <rect class="bg" width="960" height="634"/>
<text xml:space="preserve" x="480" y="38.24" text-anchor="middle" font-family='"Excalifont","Virgil","Segoe Print","Comic Sans MS",ui-rounded,cursive' font-size="22" fill="var(--ce-ink)">Tool dispatch: validate, then execute</text><text xml:space="preserve" x="480" y="61.96" text-anchor="middle" font-family='"Excalifont","Virgil","Segoe Print","Comic Sans MS",ui-rounded,cursive' font-size="13" fill="var(--ce-ink-muted)">The schema is the contract. Check the tool call against it before you run anything.</text><path d="M243.34 77.04C328.2 76.97 411.17 77.08 467.77 76.08C475.64 78.47 478.73 79.63 477.43 86.62C482.41 101.75 477.78 118.69 481.93 134.03C482.59 141.77 474.96 148.43 467.09 144.58C385.69 144.91 302.11 147.57 242.59 146.98C235.81 147.41 231.75 140.13 231.35 132.67C230.81 120.55 231.43 101.06 230.47 88.8C229.17 79.23 234.43 76.47 240.02 76.12C241.67 76 241.67 76 241.67 76" fill="var(--ce-surface)" stroke="none"/><path d="M241.04 75.05C312.1 78.32 383.66 76.33 469.17 76.9M242.51 76.57C288.59 76.68 337.01 75.49 468.05 75.54M468.33 76C474.41 76.19 481.28 81.47 480.09 85.97M469.83 77.94C477.7 75.4 478.5 81.96 478.79 89.73M480.14 86.79C480.55 97.93 481.19 110.07 481.57 132.51M480.6 87.31C480.54 102.73 480.95 116.32 480.71 134M480 134.33C481.04 140.83 477.44 147.44 467.51 145.25M479.16 134.21C479.78 142.12 475.76 146.92 469.21 143.73M467.65 146.91C380.13 144.5 288.38 146.1 239.97 146.92M467.83 146.57C390.79 147.66 312.59 147.07 242 146.4M241.67 146C232.69 144.56 231.78 140.81 232 134.02M243.61 146.38C233.67 145.43 230.56 141.58 231.17 136.35M228.39 134.81C228.93 121.47 227.88 110.24 231.6 87.59M229.57 135.14C229.36 122.45 229.46 110.86 230.79 86.8M230 87.67C228.85 80.52 235.08 77.75 240.67 74.57M228.19 88.44C230.93 81.86 235.96 75.09 242.05 76.88M241.67 76C241.67 76 241.67 76 241.67 76M241.67 76C241.67 76 241.67 76 241.67 76" fill="none" stroke="var(--ce-ink)" stroke-width="1.3" stroke-linecap="round" stroke-linejoin="round"/><path d="M236.16 86.14C236.05 104.11 234.65 120.55 234.1 138.17M234.52 84.41C235.17 99.98 234.82 116.11 235.41 137.01" fill="none" stroke="var(--ce-primary)" stroke-width="4" stroke-linecap="round" stroke-linejoin="round"/><text xml:space="preserve" x="248" y="92.28" text-anchor="start" font-family='"Excalifont","Virgil","Segoe Print","Comic Sans MS",ui-rounded,cursive' font-size="9" fill="var(--ce-ink-subtle)">SCHEMA: THE CONTRACT (bash_tool.py)</text><text xml:space="preserve" x="248" y="108.74" text-anchor="start" font-family='"JetBrains Mono",ui-monospace,Menlo,monospace' font-size="9.5" fill="var(--ce-ink)">properties: { command: string }</text><text xml:space="preserve" x="248" y="123.74" text-anchor="start" font-family='"JetBrains Mono",ui-monospace,Menlo,monospace' font-size="9.5" fill="var(--ce-ink)">required: [command]</text><text xml:space="preserve" x="248" y="138.74" text-anchor="start" font-family='"JetBrains Mono",ui-monospace,Menlo,monospace' font-size="9.5" fill="var(--ce-ink)">additionalProperties: false</text><path d="M354.29 148.91C354.01 154.7 354.24 161.54 353.12 168.48M355.29 148.81C354.57 155.97 354.56 162.26 354.77 170.76" fill="none" stroke="var(--ce-primary)" stroke-width="1.3" stroke-linecap="round" stroke-linejoin="round"/><path d="M359.49 159.96 L355 170 L350.51 159.96" fill="none" stroke="var(--ce-primary)" stroke-width="1.3" stroke-linecap="round" stroke-linejoin="round"/><path d="M52.56 174.71C80.46 176.55 108.12 176.82 167.38 175.53C177.41 176.15 178.39 177.73 181.4 186.05C180.66 197.56 178.75 203.88 181.52 227.77C179.27 235.09 176.51 240.31 170.92 240.34C126.52 235.56 86.76 237.22 49.57 238.19C41.05 238.93 40.2 234.19 38.28 228.45C40.97 214 39.32 200.44 39.71 185.24C40.11 176.5 44.28 174.54 53.08 172.1C50.67 174 50.67 174 50.67 174" fill="var(--ce-surface)" stroke="none"/><path d="M52.62 173.92C94.39 174.68 137.91 174.05 168.98 173.38M51.18 173.16C76.07 173.19 100.88 173.14 170.12 173.3M169.33 174C177.63 172.31 178.93 176.73 180.2 183.73M169.73 175.43C176.94 172.98 180.71 177.82 178.84 182.39M180.35 185.78C178.03 197.42 178.48 209.87 181.97 226.71M179.52 183.99C180.48 193.27 179.31 201.72 179.89 226.81M180 227.33C180.87 235.7 176.55 237.8 168.58 236.26M178.76 228.33C180.27 235.31 175.39 236.72 167.93 237.22M167.8 236.38C125.31 237.05 84.6 239.86 51.68 239.8M169.32 237.13C138.27 239.78 106.48 239.18 49.67 238.15M50.67 238C43.25 237.16 38.02 234.17 38.37 227.15M52.13 238.43C43.16 235.83 39.79 236.2 40.06 229.4M40.33 227.32C38.93 216.63 42 203.26 40.92 185.93M39.49 226.58C39.5 217.15 40.47 207.21 39.37 183.72M40 184.67C38.74 179.5 45.09 175.58 52.51 175.94M40.15 184.75C41.02 179.83 44.48 173.61 50.9 174.6M50.67 174C50.67 174 50.67 174 50.67 174M50.67 174C50.67 174 50.67 174 50.67 174" fill="none" stroke="var(--ce-ink)" stroke-width="1.5" stroke-linecap="round" stroke-linejoin="round"/><text xml:space="preserve" x="110" y="199.96" text-anchor="middle" font-family='"Excalifont","Virgil","Segoe Print","Comic Sans MS",ui-rounded,cursive' font-size="13" fill="var(--ce-ink)">MODEL</text><text xml:space="preserve" x="110" y="220.74" text-anchor="middle" font-family='"Excalifont","Virgil","Segoe Print","Comic Sans MS",ui-rounded,cursive' font-size="9.5" fill="var(--ce-ink-muted)">emits a tool call</text><path d="M278.81 173.76C317.05 176.77 357.36 176.36 427.57 175.41C435.06 173.78 438.24 180.14 440.87 186.36C442.07 193.6 437.61 206.79 438.38 226.59C439.33 234.03 437.77 240.26 429.91 236C392.57 238.78 357.66 239.06 280.13 237.04C272.12 238.73 268.8 233.44 271.42 225.93C270.23 219.23 269.83 211.74 270.13 187.23C271.25 177.82 272.13 176.06 282.59 171.98C280.67 174 280.67 174 280.67 174" fill="var(--ce-surface)" stroke="none"/><path d="M282.63 174.93C318.95 174.93 360.97 173.31 429.55 172.1M279.83 174.23C319.85 174.34 359.71 174.58 429.17 174.95M429.33 174C437.73 173.8 439.64 177.41 440.24 183.48M430.98 172.93C437.78 174.77 439.69 179.68 440.83 183.82M438.72 183.77C438.06 199.73 441.29 216.42 439.29 228.37M439.63 184.43C441.11 195.62 439.83 209.28 440.68 227.02M440 227.33C439.65 232.78 436.03 236.52 428.61 236.98M438.01 226.52C439.16 233.71 434.43 239.06 430.9 237.86M429.2 237.52C372.6 237.14 320.66 236.34 281.25 238.4M428.99 238.76C399.2 238.83 369.48 238.82 280.22 238.58M280.67 238C274.2 236.27 268.7 235.75 270.81 228.35M281.92 236.73C273.73 235.8 271.43 234.55 268.27 228.11M268.87 228.83C270.13 209.48 270.39 194.55 271.2 184.79M269.18 228.2C269 215.87 269.2 203.78 269.91 184.25M270 184.67C268.12 176.63 274.09 173.23 279.16 173.38M268.14 183.31C271.71 179.3 271.36 175.81 280.19 173.16M280.67 174C280.67 174 280.67 174 280.67 174M280.67 174C280.67 174 280.67 174 280.67 174" fill="none" stroke="var(--ce-ink)" stroke-width="1.5" stroke-linecap="round" stroke-linejoin="round"/><text xml:space="preserve" x="355" y="199.96" text-anchor="middle" font-family='"Excalifont","Virgil","Segoe Print","Comic Sans MS",ui-rounded,cursive' font-size="13" fill="var(--ce-ink)">VALIDATE</text><text xml:space="preserve" x="355" y="220.74" text-anchor="middle" font-family='"Excalifont","Virgil","Segoe Print","Comic Sans MS",ui-rounded,cursive' font-size="9.5" fill="var(--ce-ink-muted)">input against schema</text><path d="M532.94 144.8C572.03 148.82 605.13 147.72 673.08 147.28C682.35 143.41 682.1 148.91 684.34 157.32C682.29 164.15 685.68 172.43 684.43 190.76C683.39 197.41 683.48 204.22 674.23 200.87C627.22 200.74 585.64 204.86 533.35 199.89C526.75 202.53 526.59 197.14 523.36 193.94C523.91 182.75 524.77 174.31 524.55 154.69C526.39 150.69 528.74 144.37 534.77 143.86C533.33 146 533.33 146 533.33 146" fill="var(--ce-surface)" stroke="none"/><path d="M535.3 147.94C586.36 147.12 639.05 148.51 675.45 146.81M533.15 145.3C579.69 144.39 624 144.91 675.55 146.6M674.67 146C682.26 147.28 684.35 149.64 684.29 153.9M673.55 146.43C683.07 143.96 682.67 148.49 682.23 155.92M685.1 156.44C686.07 166.77 684.07 173.76 684.6 191.36M683.74 155.53C684.77 168.78 683.39 181.79 683.47 192.56M684 192.67C682.43 198.31 679.95 203.25 673.97 201.69M685.27 194.05C682.05 201.16 682.52 200.8 674.6 202.5M675.94 202.66C618.74 200.51 565.09 204.11 533.48 200.99M674 202.39C626.23 203.57 577.37 204.18 533.43 201.01M533.33 202C528.71 203.38 523.37 197.78 523.25 190.89M534.39 203.04C527.87 199.78 522.48 197.34 525.08 192.15M525.42 191.66C522.27 181.73 523.73 171.31 525.48 154.31M524.86 193.15C523.39 179.66 524.83 169.14 524.44 155.46M524 155.33C525.51 149.32 526.65 146.87 532.47 146.82M524.12 156.54C521.8 150.33 526.39 145.41 532.14 143.72M533.33 146C533.33 146 533.33 146 533.33 146M533.33 146C533.33 146 533.33 146 533.33 146" fill="none" stroke="var(--ce-success)" stroke-width="1.5" stroke-linecap="round" stroke-linejoin="round"/><text xml:space="preserve" x="604" y="171.96" text-anchor="middle" font-family='"Excalifont","Virgil","Segoe Print","Comic Sans MS",ui-rounded,cursive' font-size="13" fill="var(--ce-success)">EXECUTE</text><text xml:space="preserve" x="604" y="192.74" text-anchor="middle" font-family='"Excalifont","Virgil","Segoe Print","Comic Sans MS",ui-rounded,cursive' font-size="9.5" fill="var(--ce-ink-muted)">run it, get a result</text><path d="M534.39 235.84C571.03 239.43 609.21 237.64 673.27 239.15C679.99 238.25 681.95 243.33 683.82 249.63C683.72 257.38 684.55 267.31 686.48 286.79C683.45 288.35 679.54 296.17 673.21 293.74C648.27 295.92 616.14 293.48 533.91 295.94C527.82 294.32 525.19 288.39 526.5 283.42C523.18 271.85 525.3 256.18 524.97 248.68C522.34 238.81 526.59 237.88 534.28 235.73C533.33 238 533.33 238 533.33 238" fill="var(--ce-surface)" stroke="none"/><path d="M535.31 236.95C574.8 236.23 611.84 236.63 676.03 237.53M533.8 238.37C586.8 237.58 639.5 238.39 674.6 238.24M674.67 238C682.36 236.76 685.06 242.32 684.34 245.65M674.79 239.93C679.32 237.76 686.25 242.35 684.22 249.35M683.47 246.43C685.24 260.59 682.02 275.32 685.92 285.01M683.85 247.96C684.48 255.29 684.99 263.66 684.26 284.76M684 284.67C685.22 291.4 679.43 293.98 674 294.41M684.53 284.24C685.55 291.56 681.56 295.14 672.97 295.14M673.34 295.8C616.83 292.69 562.76 292.69 533.05 295.59M673.67 294.02C634.69 294.38 595.45 295.59 533.98 293.45M533.33 294C525.66 294.5 524.05 291.36 525.7 284.09M534.18 293.34C528.45 291.75 524.12 292.29 523.29 282.85M523.96 285.17C524.38 271.13 523.04 255.69 525.76 249.17M524.54 284.77C524.92 270.65 523.58 256.22 524.98 247.99M524 247.33C524.89 242.45 525.65 236.51 533.12 236.27M522.11 247.1C522.5 241.81 527.87 239.61 531.42 238.89M533.33 238C533.33 238 533.33 238 533.33 238M533.33 238C533.33 238 533.33 238 533.33 238" fill="none" stroke="var(--ce-alert)" stroke-width="1.5" stroke-linecap="round" stroke-linejoin="round"/><text xml:space="preserve" x="604" y="263.96" text-anchor="middle" font-family='"Excalifont","Virgil","Segoe Print","Comic Sans MS",ui-rounded,cursive' font-size="13" fill="var(--ce-alert)">ERROR</text><text xml:space="preserve" x="604" y="284.74" text-anchor="middle" font-family='"Excalifont","Virgil","Segoe Print","Comic Sans MS",ui-rounded,cursive' font-size="9.5" fill="var(--ce-ink-muted)">not run; handed back</text><path d="M185.99 213.96C215.17 212.49 245.83 215.9 267.93 212.24M183.12 213.44C204.33 214.36 223.16 215.46 266.98 213.89" fill="none" stroke="var(--ce-ink)" stroke-width="1.4" stroke-linecap="round" stroke-linejoin="round"/><path d="M255.96 209.51 L266 214 L255.96 218.49" fill="none" stroke="var(--ce-ink)" stroke-width="1.4" stroke-linecap="round" stroke-linejoin="round"/><text xml:space="preserve" x="194" y="188.28" text-anchor="start" font-family='"Excalifont","Virgil","Segoe Print","Comic Sans MS",ui-rounded,cursive' font-size="9" fill="var(--ce-ink-muted)">tool_use</text><text xml:space="preserve" x="194" y="202.28" text-anchor="start" font-family='"Excalifont","Virgil","Segoe Print","Comic Sans MS",ui-rounded,cursive' font-size="9" fill="var(--ce-ink-muted)">{name, input}</text><path d="M443.99 196.97C466.02 189.07 489.4 186.2 518.5 178.96M441.77 196.51C464.72 190.03 487.39 184.15 520.03 177.54" fill="none" stroke="var(--ce-success)" stroke-width="1.4" stroke-linecap="round" stroke-linejoin="round"/><path d="M509.2 175.89 L520 178 L511.22 184.63" fill="none" stroke="var(--ce-success)" stroke-width="1.4" stroke-linecap="round" stroke-linejoin="round"/><text xml:space="preserve" x="452" y="166.74" text-anchor="start" font-family='"Excalifont","Virgil","Segoe Print","Comic Sans MS",ui-rounded,cursive' font-size="9.5" fill="var(--ce-success)">valid</text><path d="M441.33 218.97C470.89 234.86 496.85 246.52 521.55 256.77M442.2 219.22C462.42 229.12 483.08 240.06 520.06 258.64" fill="none" stroke="var(--ce-alert)" stroke-width="1.4" stroke-linecap="round" stroke-linejoin="round"/><path d="M512.94 249.57 L520 258 L509.01 257.63" fill="none" stroke="var(--ce-alert)" stroke-width="1.4" stroke-linecap="round" stroke-linejoin="round"/><text xml:space="preserve" x="446" y="260.74" text-anchor="start" font-family='"Excalifont","Virgil","Segoe Print","Comic Sans MS",ui-rounded,cursive' font-size="9.5" fill="var(--ce-alert)">invalid</text><path d="M684.47 168.69C687.64 166.89 689.87 167.66 698.42 168.4M684.45 167.95C687.41 168.47 690.92 167.38 698.06 167.81" fill="none" stroke="var(--ce-ink-muted)" stroke-width="1.3" stroke-linecap="round" stroke-linejoin="round"/><path d="M683.54 273.99C686.65 273.72 692.54 274.26 696.69 275.04M684.6 274.2C687.93 273.58 692.72 274.43 697.37 274.2" fill="none" stroke="var(--ce-ink-muted)" stroke-width="1.3" stroke-linecap="round" stroke-linejoin="round"/><path d="M696.01 166.99C698.39 212.06 697.87 255.64 697.65 306.39M697.07 168.65C698.43 196.87 698.98 225.74 698.12 308.83M698.28 307.96C506.3 310.83 314.62 310.04 109.49 308.63M698.11 307.89C579.81 307.6 461.2 307.5 110.27 308.08M110.02 309.35C111.55 289.23 111.05 269.03 108.35 241.9M109.73 307.64C110.59 287.53 110.65 265.64 110.78 242.17" fill="none" stroke="var(--ce-ink-muted)" stroke-width="1.3" stroke-linecap="round" stroke-linejoin="round"/><path d="M105.51 252.04 L110 242 L114.49 252.04" fill="none" stroke="var(--ce-ink-muted)" stroke-width="1.3" stroke-linecap="round" stroke-linejoin="round"/><text xml:space="preserve" x="150" y="322.74" text-anchor="start" font-family='"Excalifont","Virgil","Segoe Print","Comic Sans MS",ui-rounded,cursive' font-size="9.5" fill="var(--ce-ink-muted)">either way, the result returns to the model as the next observation</text><path d="M744.92 78.04C778.64 76.01 812.63 74.5 897.21 74.83C913.98 75.6 922.46 81.89 922.55 101.97C921.57 164.96 922.63 226.57 921.66 290.39C918.01 307.44 913.08 317.94 895.01 318.05C839.19 313.93 779.75 313.77 745.43 316.03C730.24 315.37 718.1 308.96 721.56 291.12C719.25 232.82 722.02 171.3 719.45 100.23C720.2 86.12 727.86 76.02 742.67 74.89C744 76 744 76 744 76" fill="var(--ce-surface)" stroke="none"/><path d="M743.35 76.99C801.59 74.8 859.75 74.59 894.69 76.2M743.51 75.36C801.68 74.17 857.87 75.66 896.15 75.93M896 76C911.24 75.01 920.38 84.38 920.55 99.82M897.93 76.92C912.84 74.92 922.07 86.24 920.33 97.95M919.88 99.08C923.43 176.46 919.84 250.06 918.71 290.75M919.69 100C920.03 141.24 921.38 181.53 920.62 291.72M920 292C920.88 309.57 912.11 316.7 895.48 314.43M919.73 293.8C917.91 305.8 911.26 317.33 894.34 315.53M897.21 316.45C847.34 315.64 797.38 317.5 745.71 315.03M896.15 316.97C846.28 314.26 797.34 313.64 743.86 316.8M744 316C728.33 317.69 720.53 306.52 718.43 291.69M743.89 315.43C728.97 315.15 718.58 309.37 721.67 290.28M719.84 291.53C718.17 239.04 721.08 187.57 720.41 100.52M720.38 292.98C720.64 227.69 721.05 164.86 720.14 100.49M720 100C720.68 83.96 727.23 74.18 745.47 77M718.04 98.38C718.67 85.3 726.47 74.06 741.8 76.32M744 76C744 76 744 76 744 76M744 76C744 76 744 76 744 76" fill="none" stroke="var(--ce-ink)" stroke-width="1.3" stroke-linecap="round" stroke-linejoin="round"/><path d="M723.97 85C726.39 132.91 724.84 180.34 725.11 307.57M724.86 84.85C724.33 143.48 724.79 202.08 724.57 307.25" fill="none" stroke="var(--ce-accent)" stroke-width="4" stroke-linecap="round" stroke-linejoin="round"/><text xml:space="preserve" x="736" y="92.28" text-anchor="start" font-family='"Excalifont","Virgil","Segoe Print","Comic Sans MS",ui-rounded,cursive' font-size="9" fill="var(--ce-ink-subtle)">ONE EXCHANGE, FROM SECTION 2</text><text xml:space="preserve" x="736" y="108.74" text-anchor="start" font-family='"Excalifont","Virgil","Segoe Print","Comic Sans MS",ui-rounded,cursive' font-size="9.5" fill="var(--ce-primary)">the assistant turn</text><text xml:space="preserve" x="736" y="123.82" text-anchor="start" font-family='"JetBrains Mono",ui-monospace,Menlo,monospace' font-size="8.5" fill="var(--ce-ink)">{&quot;type&quot;: &quot;tool_use&quot;,</text><text xml:space="preserve" x="736" y="135.82" text-anchor="start" font-family='"JetBrains Mono",ui-monospace,Menlo,monospace' font-size="8.5" fill="var(--ce-ink)"> &quot;id&quot;: &quot;toolu_01A&quot;,</text><text xml:space="preserve" x="736" y="147.82" text-anchor="start" font-family='"JetBrains Mono",ui-monospace,Menlo,monospace' font-size="8.5" fill="var(--ce-ink)"> &quot;name&quot;: &quot;bash&quot;,</text><text xml:space="preserve" x="736" y="159.82" text-anchor="start" font-family='"JetBrains Mono",ui-monospace,Menlo,monospace' font-size="8.5" fill="var(--ce-ink)"> &quot;input&quot;: {&quot;command&quot;:</text><text xml:space="preserve" x="736" y="171.82" text-anchor="start" font-family='"JetBrains Mono",ui-monospace,Menlo,monospace' font-size="8.5" fill="var(--ce-ink)">   &quot;pytest -q tests/</text><text xml:space="preserve" x="736" y="183.82" text-anchor="start" font-family='"JetBrains Mono",ui-monospace,Menlo,monospace' font-size="8.5" fill="var(--ce-ink)">    test_parser.py&quot;}}</text><path d="M735.41 191.71C791.92 191.29 848.74 191.43 904.58 192.37M735.9 192.28C775.47 191.91 814.77 191.64 904.09 191.83" fill="none" stroke="var(--ce-border)" stroke-width="1" stroke-linecap="round" stroke-linejoin="round"/><text xml:space="preserve" x="736" y="208.74" text-anchor="start" font-family='"Excalifont","Virgil","Segoe Print","Comic Sans MS",ui-rounded,cursive' font-size="9.5" fill="var(--ce-success)">the harness reply, next turn</text><text xml:space="preserve" x="736" y="223.82" text-anchor="start" font-family='"JetBrains Mono",ui-monospace,Menlo,monospace' font-size="8.5" fill="var(--ce-ink)">{&quot;type&quot;: &quot;tool_result&quot;,</text><text xml:space="preserve" x="736" y="235.82" text-anchor="start" font-family='"JetBrains Mono",ui-monospace,Menlo,monospace' font-size="8.5" fill="var(--ce-ink)"> &quot;tool_use_id&quot;: &quot;toolu_01A&quot;,</text><text xml:space="preserve" x="736" y="247.82" text-anchor="start" font-family='"JetBrains Mono",ui-monospace,Menlo,monospace' font-size="8.5" fill="var(--ce-ink)"> &quot;is_error&quot;: false,</text><text xml:space="preserve" x="736" y="259.82" text-anchor="start" font-family='"JetBrains Mono",ui-monospace,Menlo,monospace' font-size="8.5" fill="var(--ce-ink)"> &quot;content&quot;: &quot;2 failed,</text><text xml:space="preserve" x="736" y="271.82" text-anchor="start" font-family='"JetBrains Mono",ui-monospace,Menlo,monospace' font-size="8.5" fill="var(--ce-ink)">   11 passed in 0.44s&quot;}</text><path d="M736.22 280.01C800.52 279.94 865.47 280.6 904.18 279.87M735.76 279.83C775.13 279.98 814.58 279.52 903.83 279.78" fill="none" stroke="var(--ce-border)" stroke-width="1" stroke-linecap="round" stroke-linejoin="round"/><text xml:space="preserve" x="736" y="294.28" text-anchor="start" font-family='"Excalifont","Virgil","Segoe Print","Comic Sans MS",ui-rounded,cursive' font-size="9" fill="var(--ce-ink-muted)">the id is the only link between</text><text xml:space="preserve" x="736" y="306.28" text-anchor="start" font-family='"Excalifont","Virgil","Segoe Print","Comic Sans MS",ui-rounded,cursive' font-size="9" fill="var(--ce-ink-muted)">a request and its answer</text><text xml:space="preserve" x="40" y="351.2" text-anchor="start" font-family='"Excalifont","Virgil","Segoe Print","Comic Sans MS",ui-rounded,cursive' font-size="10" fill="var(--ce-ink-subtle)">THREE KINDS OF WRONGNESS, THREE DIFFERENT GATES</text><text xml:space="preserve" x="390" y="350.74" text-anchor="start" font-family='"Excalifont","Virgil","Segoe Print","Comic Sans MS",ui-rounded,cursive' font-size="9.5" fill="var(--ce-ink-muted)">only the first is validation; each comes back as a string</text><text xml:space="preserve" x="920" y="350.28" text-anchor="end" font-family='"Excalifont","Virgil","Segoe Print","Comic Sans MS",ui-rounded,cursive' font-size="9" fill="var(--ce-ink-subtle)">code/06-tools-and-bash, 15 tests</text><path d="M63.96 354.48C159.67 354.81 251.68 356.39 303.31 357.1C317.8 358.26 329.34 364.8 326.51 382.55C330.26 417.33 329.09 454.53 329.79 555.56C329.95 568.23 322.09 579.56 305.64 579.76C250.23 578.17 193.87 580.86 62.97 577.89C49.8 575.81 41.19 572.17 39.65 556.32C37.89 497.93 39.87 442.63 39.18 379.89C40.3 364.09 46.99 355.5 64.12 355.68C64 356 64 356 64 356" fill="var(--ce-surface)" stroke="none"/><path d="M64.62 354.39C158.66 356.38 254.42 356.55 305.45 356.84M64.42 355.63C147.2 357.21 230.08 358.07 303.6 356.46M304 356C321.3 355.72 329.82 365.59 328.9 380.58M303.45 356.4C321.18 354.87 326.83 363.61 329.83 378.18M327.42 381.04C329.81 430.87 330.18 484.32 327.46 552.12M327.87 380.67C326.85 418.83 326.73 455.93 327.35 553.96M328 554C328.89 571.89 320.12 579.61 303.71 576.59M328.7 552.6C328.16 569.32 319.58 577.35 302.08 577.83M303.95 576.77C233.66 578.66 165.05 576.1 62.67 578.22M304.26 578.67C212.58 577.5 119.74 576.96 64.59 577.55M64 578C48.96 578.22 39.04 571.32 38.5 553.57M62.32 576.43C45.74 578.47 41.96 570.98 38.68 553.09M39.34 553.07C39.98 509.72 42.73 467.11 39.89 379.78M39.27 554.71C42.18 512.24 42.01 471.18 40.92 379.93M40 380C38.61 365.98 48.92 354.77 65.09 356.06M39.93 380.67C40.92 364.33 48.62 357.11 63.97 356.04M64 356C64 356 64 356 64 356M64 356C64 356 64 356 64 356" fill="none" stroke="var(--ce-ink)" stroke-width="1.3" stroke-linecap="round" stroke-linejoin="round"/><path d="M44.68 365.57C44.79 412.09 45.2 459.71 44.61 570.02M45.39 364.95C44.9 412.4 44.66 459.8 45.29 568.52" fill="none" stroke="var(--ce-primary)" stroke-width="4" stroke-linecap="round" stroke-linejoin="round"/><path d="M58.27 370.9C64.09 367.93 70.44 367.66 77.92 369.55C78.69 370.68 81.24 373.41 78.16 374.02C78.71 376.23 81.14 379.54 78.78 386.51C80.25 386.26 78.47 389.52 77.96 388.61C70.49 387.66 68.27 388.19 61.34 390.31C56.05 385.67 54.52 385.21 57.74 387.37C56.73 380.97 55.3 375.67 56.72 373.73C53.6 370.24 54.56 368.78 58.79 371.33C59 370 59 370 59 370" fill="var(--ce-primary)" stroke="none"/><path d="M57.27 370.07C62.66 370.02 68.65 369.61 77.71 368.93M59.85 370.24C64.63 370.31 70.07 369.01 76.6 369.69M77 370C77.7 368.04 78.29 369.05 80.93 372.09M77.28 371.4C79.21 370.06 78.14 368.78 78.56 375.2M79 373.62C78.8 376.45 79.33 381.42 79.4 386.14M79.56 373.18C80.25 376.61 79.74 381.11 80.32 385.46M80 385C81.41 385.62 78.77 387.42 76.73 389.74M78.87 385.07C80.95 385.25 81 387.37 77.06 388.26M77.79 388.55C71.22 388.59 64.58 386.06 57.31 387.4M77.69 387.3C72.02 388.27 66.8 387.45 58.77 387.17M59 388C55.93 388.96 56.82 388.04 57.46 384.04M57.19 389.3C56.65 389.98 54.45 385.35 55.02 384.77M56.62 385.05C56.74 381.69 55.67 377.62 56.85 372.41M56.24 384.47C55.48 382.7 55.87 380.48 55.96 372.77M56 373C56.87 371.07 58.59 369.86 59.19 371.02M55.92 374.05C54.31 369.45 58.6 367.97 56.96 370.62M59 370C59 370 59 370 59 370M59 370C59 370 59 370 59 370" fill="none" stroke="var(--ce-primary)" stroke-width="1" stroke-linecap="round" stroke-linejoin="round"/><text xml:space="preserve" x="68" y="382.12" text-anchor="middle" font-family='"Excalifont","Virgil","Segoe Print","Comic Sans MS",ui-rounded,cursive' font-size="11" fill="var(--ce-on-accent)">1</text><text xml:space="preserve" x="88" y="379.96" text-anchor="start" font-family='"Excalifont","Virgil","Segoe Print","Comic Sans MS",ui-rounded,cursive' font-size="13" fill="var(--ce-ink)">Schema-invalid</text><path d="M55.54 396.26C152.36 396.11 248.36 395.76 312.33 396.37M55.9 395.84C152.34 396.2 248.45 395.92 312.15 395.83" fill="none" stroke="var(--ce-border)" stroke-width="1" stroke-linecap="round" stroke-linejoin="round"/><text xml:space="preserve" x="56" y="412.28" text-anchor="start" font-family='"Excalifont","Virgil","Segoe Print","Comic Sans MS",ui-rounded,cursive' font-size="9" fill="var(--ce-ink-subtle)">THE CALL</text><text xml:space="preserve" x="312" y="412.28" text-anchor="end" font-family='"Excalifont","Virgil","Segoe Print","Comic Sans MS",ui-rounded,cursive' font-size="9" fill="var(--ce-ink-subtle)">section 7</text><text xml:space="preserve" x="56" y="426.74" text-anchor="start" font-family='"JetBrains Mono",ui-monospace,Menlo,monospace' font-size="9.5" fill="var(--ce-ink)">{&quot;cmd&quot;: &quot;ls&quot;}</text><path d="M56.18 440.27C137.49 440.7 219.24 441 311.87 440.28M56.11 440.18C137.17 439.2 218.68 439.17 312.16 439.88" fill="none" stroke="var(--ce-border)" stroke-width="1" stroke-linecap="round" stroke-linejoin="round"/><text xml:space="preserve" x="56" y="456.28" text-anchor="start" font-family='"Excalifont","Virgil","Segoe Print","Comic Sans MS",ui-rounded,cursive' font-size="9" fill="var(--ce-ink-subtle)">CAUGHT BY</text><text xml:space="preserve" x="56" y="470.58" text-anchor="start" font-family='"Excalifont","Virgil","Segoe Print","Comic Sans MS",ui-rounded,cursive' font-size="11.5" fill="var(--ce-primary)">the harness validator</text><text xml:space="preserve" x="56" y="486.74" text-anchor="start" font-family='"Excalifont","Virgil","Segoe Print","Comic Sans MS",ui-rounded,cursive' font-size="9.5" fill="var(--ce-ink-muted)">before anything is executed</text><text xml:space="preserve" x="56" y="504.28" text-anchor="start" font-family='"Excalifont","Virgil","Segoe Print","Comic Sans MS",ui-rounded,cursive' font-size="9" fill="var(--ce-ink-subtle)">schema.py, a 66-line JSON-Schema subset</text><path d="M55.54 510.03C132.18 510.32 207.95 510.23 311.78 510.41M55.89 510.13C144.65 510.37 233.02 510.3 311.94 510.06" fill="none" stroke="var(--ce-border)" stroke-width="1" stroke-linecap="round" stroke-linejoin="round"/><text xml:space="preserve" x="56" y="525.28" text-anchor="start" font-family='"Excalifont","Virgil","Segoe Print","Comic Sans MS",ui-rounded,cursive' font-size="9" fill="var(--ce-ink-subtle)">WHAT THE LOOP SEES</text><text xml:space="preserve" x="56" y="538.82" text-anchor="start" font-family='"JetBrains Mono",ui-monospace,Menlo,monospace' font-size="8.5" fill="var(--ce-ink)">error: invalid input: $: missing required</text><text xml:space="preserve" x="56" y="551.82" text-anchor="start" font-family='"JetBrains Mono",ui-monospace,Menlo,monospace' font-size="8.5" fill="var(--ce-ink)">property 'command'; $: unexpected property 'cmd'</text><text xml:space="preserve" x="56" y="567.74" text-anchor="start" font-family='"Excalifont","Virgil","Segoe Print","Comic Sans MS",ui-rounded,cursive' font-size="9.5" fill="var(--ce-ink-muted)">the model patches the call and retries</text><path d="M360.42 355.2C427.88 356.74 496.71 356.14 598.85 357.88C616.22 353.67 624.41 364.5 624.37 380.99C624.65 445.25 621.18 507.83 623.19 551.61C622.87 570.17 613.96 579.24 600.41 576.59C513.95 577.44 433.45 578.7 359.01 577.59C345.65 579.72 335.22 570.92 334.74 554.21C336.74 520.22 336.26 480.51 336.09 382.1C336.61 363.78 344.99 356.43 362.22 358.37C360 356 360 356 360 356" fill="var(--ce-surface)" stroke="none"/><path d="M359.55 355.27C424.6 357.09 492.13 358.7 598.92 354.5M360.53 356.27C449.24 355.03 540.44 354.63 600.69 356.82M600 356C616.56 355.77 622.32 365.9 625.19 380.34M599.32 357.89C614.87 357.02 625.54 364.64 624.66 379.57M625.13 379.02C625.68 429.07 624.97 482.28 625.11 555.95M623.23 380.1C622.17 450.56 624.05 520.11 623.68 554.6M624 554C623.85 570.77 616.81 576.88 599.9 578.47M625.32 554.49C624.81 568.38 615.63 579.91 598.47 577.28M600.68 578.33C526.79 578.68 456.47 578.23 359.73 577.47M599.65 577.83C537.73 577.63 476.24 577.51 359.59 578.72M360 578C345.66 579.26 337.98 570.67 336.64 554.51M361.03 577.7C343.87 576.75 334.56 571.26 335.6 552.57M335.45 554.61C338.07 500.91 337.72 447.53 336.33 380.55M335.92 553.61C336.12 517.79 335.74 480.7 335.64 379.98M336 380C336.04 363.82 345.27 357.17 358.52 357.2M337.83 378.22C335.17 362.53 344.79 357.23 361.56 354.61M360 356C360 356 360 356 360 356M360 356C360 356 360 356 360 356" fill="none" stroke="var(--ce-ink)" stroke-width="1.3" stroke-linecap="round" stroke-linejoin="round"/><path d="M340 364C340.7 428.7 339.88 490.69 341.12 568.52M341.46 365.37C341.74 418.46 341.62 470.56 340.92 568.75" fill="none" stroke="var(--ce-warn)" stroke-width="4" stroke-linecap="round" stroke-linejoin="round"/><path d="M354.77 371.69C359.59 369.86 361.06 371.93 373.43 370.39C377.11 371.29 376.31 373.11 376.02 372.46C377.22 376.81 375.15 379.18 376.34 384.14C378.38 388.2 375.53 389.21 372.74 385.43C370.04 387.82 366.12 386.8 352.71 389.98C351.9 389.58 353.75 389.15 352.84 385.26C351.31 381.26 351.53 378.45 353.26 371.93C349.91 369.92 352.55 369.7 356.89 368.82C355 370 355 370 355 370" fill="var(--ce-warn)" stroke="none"/><path d="M355.72 371.02C359.6 371.96 368.51 369.51 374.57 370.01M354.17 369.14C360.64 369.57 366.75 370.51 373.77 370.07M373 370C376.96 368.09 374.79 369.35 377.22 371.84M373.15 368.88C372.9 372.22 376.86 369.81 377.99 371.99M376.03 372.41C375.57 376.43 375.45 382.3 376.39 386.03M376.38 372.84C376.06 376.68 375.55 380.51 376.53 384.64M376 385C376.38 388.49 375.47 388.69 372.92 387.61M375.49 386.95C377.61 388.92 377.06 389.93 373.44 387.71M374.57 386.64C367.61 388.18 359.03 387.93 354.45 386.59M373.03 388.19C367.45 387.64 360.43 387.28 355.48 388.44M355 388C352.63 386.01 351.76 387.39 351.6 384.98M355.89 386.57C354.78 388.27 351.65 385.63 351.94 384.24M352.69 385.97C351.97 380.95 351.44 374.96 353.11 372.88M351.42 385.01C352.27 380.04 352.53 375.39 352.4 372.8M352 373C350.3 372.91 354.94 368.26 356.62 368.16M353.82 371.6C353.17 372.25 354.78 368.09 354.55 369.19M355 370C355 370 355 370 355 370M355 370C355 370 355 370 355 370" fill="none" stroke="var(--ce-warn)" stroke-width="1" stroke-linecap="round" stroke-linejoin="round"/><text xml:space="preserve" x="364" y="382.12" text-anchor="middle" font-family='"Excalifont","Virgil","Segoe Print","Comic Sans MS",ui-rounded,cursive' font-size="11" fill="var(--ce-on-accent)">2</text><text xml:space="preserve" x="384" y="379.96" text-anchor="start" font-family='"Excalifont","Virgil","Segoe Print","Comic Sans MS",ui-rounded,cursive' font-size="13" fill="var(--ce-ink)">Schema-valid, wrong</text><path d="M352.19 395.55C416.6 395.96 481.38 396.03 607.59 395.69M351.93 396.03C403.92 396.39 455.8 396.71 607.98 395.93" fill="none" stroke="var(--ce-border)" stroke-width="1" stroke-linecap="round" stroke-linejoin="round"/><text xml:space="preserve" x="352" y="412.28" text-anchor="start" font-family='"Excalifont","Virgil","Segoe Print","Comic Sans MS",ui-rounded,cursive' font-size="9" fill="var(--ce-ink-subtle)">THE CALL</text><text xml:space="preserve" x="608" y="412.28" text-anchor="end" font-family='"Excalifont","Virgil","Segoe Print","Comic Sans MS",ui-rounded,cursive' font-size="9" fill="var(--ce-ink-subtle)">section 8</text><text xml:space="preserve" x="352" y="426.74" text-anchor="start" font-family='"JetBrains Mono",ui-monospace,Menlo,monospace' font-size="9.5" fill="var(--ce-ink)">{&quot;command&quot;: &quot;cat /tmp/nope&quot;}</text><path d="M351.87 439.55C452.93 439.59 554.66 440.31 608.1 439.6M352.14 439.89C440.43 439.87 528.42 439.96 607.99 439.98" fill="none" stroke="var(--ce-border)" stroke-width="1" stroke-linecap="round" stroke-linejoin="round"/><text xml:space="preserve" x="352" y="456.28" text-anchor="start" font-family='"Excalifont","Virgil","Segoe Print","Comic Sans MS",ui-rounded,cursive' font-size="9" fill="var(--ce-ink-subtle)">CAUGHT BY</text><text xml:space="preserve" x="352" y="470.58" text-anchor="start" font-family='"Excalifont","Virgil","Segoe Print","Comic Sans MS",ui-rounded,cursive' font-size="11.5" fill="var(--ce-warn)">the tool itself, at run time</text><text xml:space="preserve" x="352" y="486.74" text-anchor="start" font-family='"Excalifont","Virgil","Segoe Print","Comic Sans MS",ui-rounded,cursive' font-size="9.5" fill="var(--ce-ink-muted)">the exit status is surfaced, not swallowed</text><text xml:space="preserve" x="352" y="504.28" text-anchor="start" font-family='"Excalifont","Virgil","Segoe Print","Comic Sans MS",ui-rounded,cursive' font-size="9" fill="var(--ce-ink-subtle)">all 4 dispatch branches return a string</text><path d="M352.2 510.28C447.63 510.58 543.37 510.9 608.01 509.73M351.92 509.83C447.43 510.56 543.25 510.6 607.77 510.16" fill="none" stroke="var(--ce-border)" stroke-width="1" stroke-linecap="round" stroke-linejoin="round"/><text xml:space="preserve" x="352" y="525.28" text-anchor="start" font-family='"Excalifont","Virgil","Segoe Print","Comic Sans MS",ui-rounded,cursive' font-size="9" fill="var(--ce-ink-subtle)">WHAT THE LOOP SEES</text><text xml:space="preserve" x="352" y="538.82" text-anchor="start" font-family='"JetBrains Mono",ui-monospace,Menlo,monospace' font-size="8.5" fill="var(--ce-ink)">(exit 1) cat: /tmp/nope:</text><text xml:space="preserve" x="352" y="551.82" text-anchor="start" font-family='"JetBrains Mono",ui-monospace,Menlo,monospace' font-size="8.5" fill="var(--ce-ink)">No such file or directory</text><text xml:space="preserve" x="352" y="567.74" text-anchor="start" font-family='"Excalifont","Virgil","Segoe Print","Comic Sans MS",ui-rounded,cursive' font-size="9.5" fill="var(--ce-ink-muted)">the model reads the code and fixes the path</text><path d="M656.89 355.93C748.43 354.33 842.07 355.9 894.39 354.32C909.44 354.28 919.47 364.19 922.23 379.44C919.03 433.17 918.47 491.53 921.79 552.87C920.99 572.11 911.02 578.93 895.19 578.61C830 578.8 764.69 578.62 655.06 577.28C641.51 578.43 634.45 569.66 629.84 552.1C630.38 502.52 632.65 448.79 633 379.1C632.92 363.46 637.78 357.35 655.12 355.86C656 356 656 356 656 356" fill="var(--ce-surface)" stroke="none"/><path d="M654.48 356.16C741.87 356.72 825.83 356.45 895.71 355.49M656.64 355.25C704.95 355.58 753.13 355.59 896.11 355.51M896 356C911.83 355.83 918.81 362.2 921.48 380.1M895.19 355.37C913.15 354.58 919.66 365.66 919.49 380.95M918.83 380.99C917.55 427.28 919.75 476.24 918.77 555.78M920.59 379.53C919.5 445.48 919.38 512.68 920.02 553.23M920 554C918.82 569.64 913.51 578.14 896.09 576.34M921.95 552.37C921.47 572.04 911.69 577.86 894.85 576.73M897.4 576.57C819.92 578.69 744.56 577.02 656.79 576.73M896.71 578.66C816.55 577.76 736.74 578.07 656.25 578.23M656 578C638.36 576.31 632.91 570.03 630.78 555.45M655.73 578.96C641.99 579.64 631.75 571.54 632.53 552.04M631.57 552.15C632.16 492.09 632.72 431.95 632.78 381.33M632.57 554.52C630.07 486.55 631.48 418.61 632.37 380.04M632 380C633.47 365.66 641.62 355.57 655.95 354.33M631.74 379.77C634.03 365.33 640.96 357.34 654.55 357.78M656 356C656 356 656 356 656 356M656 356C656 356 656 356 656 356" fill="none" stroke="var(--ce-ink)" stroke-width="1.3" stroke-linecap="round" stroke-linejoin="round"/><path d="M637.45 364.57C636.6 443.17 636.7 521.68 637.63 569.16M637.53 364.71C636.18 423.45 636.17 482.39 636.54 568.98" fill="none" stroke="var(--ce-alert)" stroke-width="4" stroke-linecap="round" stroke-linejoin="round"/><path d="M651.27 367.79C658.7 371.79 663.55 371.51 668.93 371.23C670.33 371.9 671.38 372.8 673.87 370.91C672.48 376.67 672.16 383.62 670.77 384.89C671.3 384.94 672.6 388.9 667.51 387.46C661.32 387.99 656.78 390.1 648.76 389.66C647.76 388.29 647.78 387.9 647.93 383.15C649.02 382.26 647.76 376.44 646.69 373.26C646.21 369.61 650.55 370.63 649.8 371.51C651 370 651 370 651 370" fill="var(--ce-alert)" stroke="none"/><path d="M650.56 368.38C656.54 369.9 657.57 369.02 667.83 371.08M650.28 369.83C658.45 370.62 665.23 370.2 669.15 370.46M669 370C672.22 368.15 671.29 369.65 673.51 371.6M669.02 370.37C671.18 369.77 670.98 370.84 672.82 373.37M673.05 373.59C672.07 376.4 671.3 380.78 670.99 385.93M672 372.49C671.87 376.76 671.36 379.9 671.53 385.02M672 385C671.34 387.36 672.17 389.96 669.11 389.49M672.12 384.83C674.26 387.98 673.12 387.89 669.83 387.16M667.76 388.34C660.41 387.77 653.48 386.2 651.6 389.38M668.37 387.29C664.68 388.82 661.26 388.91 650.4 387.91M651 388C649.33 387.05 646.7 386.75 649.74 385.92M650.6 387.83C648.31 386.56 648.84 385.91 648.87 383.71M648.76 384.49C647.2 382.61 647.21 379.5 646.98 373.34M647.81 385.56C648.12 380.97 648.25 376.3 647.63 372.84M648 373C647.72 370.75 647.29 370.67 650.05 369.29M647.73 373.14C647.43 370.44 650.95 368.21 652.14 367.76M651 370C651 370 651 370 651 370M651 370C651 370 651 370 651 370" fill="none" stroke="var(--ce-alert)" stroke-width="1" stroke-linecap="round" stroke-linejoin="round"/><text xml:space="preserve" x="660" y="382.12" text-anchor="middle" font-family='"Excalifont","Virgil","Segoe Print","Comic Sans MS",ui-rounded,cursive' font-size="11" fill="var(--ce-on-accent)">3</text><text xml:space="preserve" x="680" y="379.96" text-anchor="start" font-family='"Excalifont","Virgil","Segoe Print","Comic Sans MS",ui-rounded,cursive' font-size="13" fill="var(--ce-ink)">Schema-valid, dangerous</text><path d="M647.88 395.81C732.05 396.22 816.8 396.71 903.82 395.98M647.97 396.21C706.71 395.69 765.54 395.65 903.81 396.04" fill="none" stroke="var(--ce-border)" stroke-width="1" stroke-linecap="round" stroke-linejoin="round"/><text xml:space="preserve" x="648" y="412.28" text-anchor="start" font-family='"Excalifont","Virgil","Segoe Print","Comic Sans MS",ui-rounded,cursive' font-size="9" fill="var(--ce-ink-subtle)">THE CALL</text><text xml:space="preserve" x="904" y="412.28" text-anchor="end" font-family='"Excalifont","Virgil","Segoe Print","Comic Sans MS",ui-rounded,cursive' font-size="9" fill="var(--ce-ink-subtle)">section 5</text><text xml:space="preserve" x="648" y="426.74" text-anchor="start" font-family='"JetBrains Mono",ui-monospace,Menlo,monospace' font-size="9.5" fill="var(--ce-ink)">{&quot;command&quot;: &quot;rm -rf /&quot;}</text><path d="M647.56 439.81C717.18 439.45 786.71 439.62 904.33 439.89M648.18 440.07C743.22 440.05 838.65 440.26 903.82 440.09" fill="none" stroke="var(--ce-border)" stroke-width="1" stroke-linecap="round" stroke-linejoin="round"/><text xml:space="preserve" x="648" y="456.28" text-anchor="start" font-family='"Excalifont","Virgil","Segoe Print","Comic Sans MS",ui-rounded,cursive' font-size="9" fill="var(--ce-ink-subtle)">CAUGHT BY</text><text xml:space="preserve" x="648" y="470.58" text-anchor="start" font-family='"Excalifont","Virgil","Segoe Print","Comic Sans MS",ui-rounded,cursive' font-size="11.5" fill="var(--ce-alert)">a deny-list, then a sandbox</text><text xml:space="preserve" x="648" y="486.74" text-anchor="start" font-family='"Excalifont","Virgil","Segoe Print","Comic Sans MS",ui-rounded,cursive' font-size="9.5" fill="var(--ce-ink-muted)">refused before the runner sees it</text><text xml:space="preserve" x="648" y="504.28" text-anchor="start" font-family='"Excalifont","Virgil","Segoe Print","Comic Sans MS",ui-rounded,cursive' font-size="9" fill="var(--ce-ink-subtle)">12 patterns; 4 other spellings pass</text><path d="M647.89 509.57C711.87 510.43 775.42 510.21 904.24 510.01M647.96 510.02C699.01 509.86 750.6 509.54 904.09 509.78" fill="none" stroke="var(--ce-border)" stroke-width="1" stroke-linecap="round" stroke-linejoin="round"/><text xml:space="preserve" x="648" y="525.28" text-anchor="start" font-family='"Excalifont","Virgil","Segoe Print","Comic Sans MS",ui-rounded,cursive' font-size="9" fill="var(--ce-ink-subtle)">WHAT THE LOOP SEES</text><text xml:space="preserve" x="648" y="538.82" text-anchor="start" font-family='"JetBrains Mono",ui-monospace,Menlo,monospace' font-size="8.5" fill="var(--ce-ink)">blocked: command matches a deny-list</text><text xml:space="preserve" x="648" y="551.82" text-anchor="start" font-family='"JetBrains Mono",ui-monospace,Menlo,monospace' font-size="8.5" fill="var(--ce-ink)">rule (\brm\s+-[rf])</text><text xml:space="preserve" x="648" y="567.74" text-anchor="start" font-family='"Excalifont","Virgil","Segoe Print","Comic Sans MS",ui-rounded,cursive' font-size="9.5" fill="var(--ce-ink-muted)">the sandbox is what actually holds (Post 14)</text><text xml:space="preserve" x="40" y="602.58" text-anchor="start" font-family='"Excalifont","Virgil","Segoe Print","Comic Sans MS",ui-rounded,cursive' font-size="11.5" fill="var(--ce-ink)">A tool is a contract written in tokens. Validate the call, and a bad call becomes a correctable error.</text><text xml:space="preserve" x="40" y="622.58" text-anchor="start" font-family='"Excalifont","Virgil","Segoe Print","Comic Sans MS",ui-rounded,cursive' font-size="11.5" fill="var(--ce-ink-muted)">Skip the validation and the same call becomes a crash, which the loop cannot see and cannot fix.</text>
</svg>
